<?xml version="1.0" encoding="utf-8"?>
<!-- Generator: Adobe Illustrator 24.1.3, SVG Export Plug-In . SVG Version: 6.00 Build 0)  -->
<svg version="1.1" id="Layer_1" xmlns="http://www.w3.org/2000/svg" xmlns:xlink="http://www.w3.org/1999/xlink" x="0px" y="0px"
	 viewBox="0 0 216.7 107.9" style="enable-background:new 0 0 216.7 107.9;" xml:space="preserve">
<style type="text/css">
	.st0{fill:#507D55;}
	.st1{fill:none;stroke:#000000;stroke-miterlimit:10;}
	.st2{fill:#507D55;stroke:#000000;stroke-width:1.0006;stroke-linecap:round;stroke-linejoin:round;stroke-miterlimit:10;}
	.st3{fill:#CFCFCE;}
</style>
<g>
	<g>
		<path class="st0" d="M34.6,88.1c0,0-0.1,0-0.1,0l-1-0.3c-0.1,0-0.2-0.1-0.3-0.2c-0.1-0.1-0.1-0.3,0-0.4L58.6,0.9
			c0-0.1,0.1-0.2,0.2-0.3c0.1,0,0.2-0.1,0.2-0.1c0,0,0.1,0,0.1,0l1,0.3c0.3,0.1,0.4,0.4,0.3,0.6L35.1,87.7
			C35.1,88,34.9,88.1,34.6,88.1z"/>
		<path d="M59.1,1l1,0.3L34.6,87.6l-1-0.3L59.1,1 M59.1,0c-0.2,0-0.3,0-0.5,0.1c-0.2,0.1-0.4,0.3-0.5,0.6L32.7,87
			c-0.1,0.3,0,0.5,0.1,0.8c0.1,0.2,0.3,0.4,0.6,0.5l1,0.3c0.1,0,0.2,0,0.3,0c0.4,0,0.8-0.3,1-0.7L61,1.6c0.2-0.5-0.1-1.1-0.7-1.2
			l-1-0.3C59.3,0,59.2,0,59.1,0L59.1,0z"/>
	</g>
</g>
<path class="st1" d="M17.7,89.9c0,0,0.7,5.7-1.9,9.1"/>
<path class="st1" d="M20.9,90.9c0,0,0.7,5.7-1.9,9.1"/>
<path class="st1" d="M24.2,91.8c0,0,0.7,5.7-1.9,9.1"/>
<path class="st1" d="M27.4,92.8c0,0,0.7,5.7-1.9,9.1"/>
<path class="st1" d="M30.7,93.7c0,0,0.7,5.7-1.9,9.1"/>
<path class="st1" d="M33.9,94.7c0,0,0.7,5.7-1.9,9.1"/>
<path class="st1" d="M37.2,95.7c0,0,0.7,5.7-1.9,9.1"/>
<path class="st1" d="M40.4,96.6c0,0,0.7,5.7-1.9,9.1"/>
<path class="st1" d="M43.7,97.6c0,0,0.7,5.7-1.9,9.1"/>
<path class="st1" d="M46.9,98.6c0,0,0.7,5.7-1.9,9.1"/>
<path class="st1" d="M18.7,89.6c0,0,0.7,5.7-1.9,9.1"/>
<path class="st1" d="M22,90.6c0,0,0.7,5.7-1.9,9.1"/>
<path class="st1" d="M25.2,91.6c0,0,0.7,5.7-1.9,9.1"/>
<path class="st1" d="M28.4,92.5c0,0,0.7,5.7-1.9,9.1"/>
<path class="st1" d="M31.7,93.5c0,0,0.7,5.7-1.9,9.1"/>
<path class="st1" d="M34.9,94.5c0,0,0.7,5.7-1.9,9.1"/>
<path class="st1" d="M38.2,95.4c0,0,0.7,5.7-1.9,9.1"/>
<path class="st1" d="M41.4,96.4c0,0,0.7,5.7-1.9,9.1"/>
<path class="st1" d="M44.7,97.3c0,0,0.7,5.7-1.9,9.1"/>
<path class="st1" d="M47.9,98.3c0,0,0.7,5.7-1.9,9.1"/>
<path class="st2" d="M13.6,88.7l34,10.3c1.7,0.5,3.4-0.4,3.9-2.1l0.2-0.8c0.5-1.7-0.4-3.4-2.1-3.9l-30.9-9.3
	c-1.7-0.5-3.4,0.5-3.9,2.1l-1.2,4.1"/>
<g>
	<path class="st0" d="M87.3,49.8H71.9l0.9-5.9c2.5-3.2,4.9-6.6,7-10.4c2.1-3.8,4.2-8,6.2-12.8h8c-1.2,2.8-2.7,5.9-4.6,9.1
		c-1.9,3.2-3.8,6.1-5.6,8.7c-1.9,2.6-3.3,4.4-4.3,5.5h8.9l1.3-7.5c0.9-1.3,2-3,3.1-5c1.1-2,2-3.8,2.7-5.4h3.3l-3.2,17.8h4.3l-1,5.9
		h-4.3l-1.4,7.7H86L87.3,49.8z"/>
	<path class="st0" d="M106.2,55.7c-1.8-1.6-2.8-4.4-2.8-8.4c0-2.2,0.3-4.8,0.8-7.9c0.8-4.8,1.8-8.5,3.2-11.3
		c1.3-2.7,2.9-4.6,4.8-5.8c1.9-1.1,4.1-1.7,6.7-1.7c3.6,0,6.4,0.8,8.2,2.5c1.9,1.7,2.8,4.5,2.8,8.5c0,2.1-0.3,4.7-0.8,7.7
		c-0.8,4.7-1.8,8.5-3.2,11.2c-1.4,2.7-3,4.7-4.8,5.8c-1.9,1.1-4.1,1.7-6.6,1.7C110.8,58.1,108.1,57.3,106.2,55.7z M117.8,51.1
		c0.8-0.8,1.5-1.9,2-3.4c0.5-1.5,1-3.7,1.6-6.4c0.5-2.9,0.9-5.1,1.1-6.5c0.2-1.4,0.3-2.6,0.3-3.5c0-1.6-0.3-2.8-0.9-3.6
		c-0.6-0.8-1.6-1.1-2.9-1.1c-1.4,0-2.5,0.4-3.4,1.1c-0.8,0.8-1.5,1.9-2,3.4c-0.5,1.5-1,3.7-1.5,6.4c-0.6,3.1-0.9,5.3-1.1,6.6
		c-0.2,1.4-0.3,2.5-0.3,3.3c0,1.6,0.3,2.8,0.9,3.6c0.6,0.8,1.6,1.1,3,1.1C115.8,52.2,117,51.8,117.8,51.1z"/>
	<path class="st0" d="M145.9,49.8h-15.4l0.9-5.9c2.5-3.2,4.9-6.6,7-10.4c2.1-3.8,4.2-8,6.2-12.8h8c-1.2,2.8-2.7,5.9-4.6,9.1
		c-1.9,3.2-3.8,6.1-5.6,8.7c-1.9,2.6-3.3,4.4-4.3,5.5h8.9l1.3-7.5c0.9-1.3,2-3,3.1-5c1.1-2,2-3.8,2.7-5.4h3.3l-3.2,17.8h4.3l-1,5.9
		h-4.3l-1.4,7.7h-7.2L145.9,49.8z"/>
	<path class="st0" d="M74.1,72.2h1.4l0.2,1.5H76c0.4-0.6,0.9-1,1.5-1.4c0.6-0.3,1.3-0.5,2.1-0.5c1.5,0,2.6,0.5,3.4,1.5
		c0.8,1,1.2,2.5,1.2,4.5c0,2-0.4,3.5-1.2,4.5c-0.8,1-1.8,1.5-3.2,1.5c-0.8,0-1.5-0.1-2.1-0.4c-0.6-0.2-1-0.6-1.4-1.2h-0.1v5.1h-1.9
		V72.2z M80.8,81.9c0.4-0.3,0.8-0.7,1-1.4c0.2-0.6,0.3-1.5,0.3-2.6v-0.1c0-1.1-0.1-2-0.3-2.6c-0.2-0.6-0.5-1.1-1-1.4
		c-0.4-0.3-1-0.4-1.8-0.4c-1,0-1.8,0.4-2.2,1.1c-0.5,0.7-0.7,1.8-0.7,3.3V78c0,1.4,0.2,2.5,0.7,3.2c0.5,0.7,1.2,1.1,2.3,1.1
		C79.8,82.3,80.4,82.2,80.8,81.9z"/>
	<path class="st0" d="M86.8,83.2c-0.8-0.5-1.2-1.3-1.2-2.5c0-1.5,0.7-2.5,2-3c1.3-0.5,3.2-0.8,5.7-0.8v-1.3c0-0.7-0.2-1.2-0.6-1.5
		c-0.4-0.4-1.1-0.5-2-0.5c-0.9,0-1.6,0.2-2,0.5c-0.4,0.3-0.6,0.8-0.6,1.3v0.3h-1.9c0-0.1,0-0.2,0-0.5c0-1,0.4-1.8,1.3-2.4
		c0.8-0.6,2-0.8,3.4-0.8c1.4,0,2.5,0.3,3.2,0.9s1.1,1.4,1.1,2.5v6.2c0,0.3,0.1,0.5,0.2,0.6c0.1,0.1,0.3,0.2,0.5,0.2h0.9v1.2
		c-0.4,0.2-0.9,0.3-1.5,0.3c-0.5,0-0.9-0.1-1.2-0.4c-0.3-0.3-0.6-0.7-0.7-1.2h-0.2c-0.4,0.5-0.9,1-1.6,1.3c-0.7,0.3-1.4,0.5-2.2,0.5
		C88.4,83.9,87.5,83.7,86.8,83.2z M91.5,82c0.5-0.2,0.9-0.6,1.2-1c0.3-0.5,0.5-1,0.5-1.7v-0.8c-1.9,0-3.3,0.1-4.2,0.4
		c-0.9,0.3-1.4,0.9-1.4,1.7c0,0.6,0.2,1.1,0.6,1.3c0.4,0.3,1,0.4,1.7,0.4C90.5,82.3,91,82.2,91.5,82z"/>
	<path class="st0" d="M98.3,87c-0.6-0.4-0.9-1.1-0.9-2.1c0-1.2,0.6-2,1.9-2.4c-0.3-0.2-0.6-0.4-0.9-0.7c-0.2-0.3-0.3-0.6-0.3-1
		c0-0.6,0.2-1,0.6-1.3c0.4-0.3,0.8-0.5,1.3-0.6c-0.5-0.3-0.9-0.8-1.1-1.3c-0.3-0.5-0.4-1.1-0.4-1.7c0-1.2,0.4-2.2,1.2-2.8s2-1,3.4-1
		c0.8,0,1.5,0.1,2.2,0.4c0.9-0.5,1.5-1.1,1.7-2h1.8c0,0.7-0.2,1.3-0.6,1.8c-0.4,0.5-0.9,0.8-1.6,1c0.8,0.7,1.2,1.6,1.2,2.7
		c0,1.2-0.4,2.2-1.3,2.8c-0.8,0.7-2,1-3.4,1h-1.8c-0.4,0-0.7,0.1-0.9,0.3c-0.2,0.2-0.3,0.4-0.3,0.7c0,0.3,0.1,0.5,0.3,0.7
		s0.5,0.3,0.9,0.3h4.6c0.9,0,1.6,0.3,2.1,0.8c0.5,0.5,0.8,1.2,0.8,2c0,0.6-0.1,1.1-0.4,1.6c-0.2,0.5-0.6,0.9-1.2,1.2
		c-0.5,0.3-1.2,0.5-2.1,0.5h-4.6C99.6,87.6,98.9,87.4,98.3,87z M105.1,86.1c0.5,0,0.9-0.1,1.2-0.4c0.3-0.3,0.5-0.6,0.5-1
		c0-0.4-0.1-0.8-0.4-1c-0.3-0.3-0.6-0.4-1-0.4h-4.8c-0.4,0-0.8,0.1-1,0.4c-0.2,0.3-0.4,0.6-0.4,1c0,0.4,0.1,0.8,0.4,1
		c0.2,0.3,0.6,0.4,1,0.4H105.1z M105.1,77.5c0.5-0.4,0.7-1,0.7-1.8c0-0.8-0.2-1.3-0.7-1.8c-0.5-0.4-1.1-0.6-2-0.6
		c-0.9,0-1.6,0.2-2,0.6c-0.5,0.4-0.7,1-0.7,1.8c0,0.8,0.2,1.3,0.7,1.8c0.5,0.4,1.1,0.6,2,0.6C103.9,78.1,104.6,77.9,105.1,77.5z"/>
	<path class="st0" d="M111.3,82.4c-0.9-1-1.4-2.5-1.4-4.5c0-2,0.5-3.6,1.4-4.5c0.9-1,2.3-1.5,4.1-1.5c1.7,0,2.9,0.4,3.7,1.3
		c0.8,0.9,1.2,2.3,1.2,4.2v1h-8.4c0.1,1.3,0.4,2.3,0.9,2.9c0.6,0.6,1.4,0.9,2.5,0.9c0.9,0,1.7-0.2,2.2-0.6c0.6-0.4,0.9-1.1,0.9-1.9
		h1.9c0,1.3-0.5,2.4-1.4,3.1c-0.9,0.7-2.1,1.1-3.6,1.1C113.5,83.9,112.2,83.4,111.3,82.4z M118.3,76.8c0-2.2-1-3.3-2.9-3.3
		c-1.1,0-1.9,0.3-2.5,0.8s-0.9,1.4-1,2.6H118.3z"/>
	<path class="st0" d="M128.7,72.2h1.5l0.2,1.5h0.2c0.8-1.2,2.1-1.8,3.9-1.8c1.2,0,2,0.3,2.6,0.9c0.6,0.6,0.9,1.6,0.9,3v7.8h-1.9
		v-7.7c0-0.9-0.2-1.6-0.6-1.9c-0.4-0.4-1-0.5-1.8-0.5c-0.6,0-1.1,0.1-1.5,0.4c-0.5,0.3-0.8,0.7-1.1,1.2c-0.3,0.5-0.4,1.1-0.4,1.8
		v6.8h-1.9V72.2z"/>
	<path class="st0" d="M141.5,82.4c-0.9-1-1.3-2.5-1.3-4.5c0-2,0.4-3.5,1.3-4.5c0.9-1,2.2-1.5,4-1.5c1.8,0,3.1,0.5,4,1.5
		c0.9,1,1.3,2.5,1.3,4.5c0,2-0.4,3.5-1.3,4.5c-0.9,1-2.2,1.5-4,1.5C143.7,83.9,142.4,83.4,141.5,82.4z M148,81.3
		c0.5-0.7,0.8-1.8,0.8-3.3v-0.2c0-1.5-0.3-2.6-0.8-3.3c-0.5-0.7-1.4-1-2.5-1c-1.2,0-2,0.3-2.5,1s-0.8,1.8-0.8,3.3V78
		c0,1.5,0.3,2.6,0.8,3.3s1.4,1,2.5,1C146.6,82.3,147.4,82,148,81.3z"/>
	<path class="st0" d="M153.8,83.2c-0.4-0.5-0.5-1-0.5-1.7v-7.7h-1.4v-1.6h1.4l0.4-3.2h1.5v3.2h1.9v1.6h-1.9v7.5c0,0.7,0.3,1,1,1h1
		v1.3c-0.2,0.1-0.4,0.2-0.7,0.2c-0.3,0.1-0.6,0.1-0.9,0.1C154.8,83.9,154.2,83.6,153.8,83.2z"/>
	<path class="st0" d="M165.5,73.8h-1.7v-1.6h1.7v-1.8c0-0.8,0.2-1.4,0.6-1.9c0.4-0.5,1-0.8,1.9-0.8c0.3,0,0.6,0,0.9,0.1
		c0.3,0.1,0.5,0.1,0.8,0.2v1.3h-1.1c-0.7,0-1.1,0.3-1.1,1v1.8h2.2v1.6h-2.2v9.9h-1.9V73.8z"/>
	<path class="st0" d="M171.8,82.4c-0.9-1-1.3-2.5-1.3-4.5c0-2,0.4-3.5,1.3-4.5c0.9-1,2.2-1.5,4-1.5s3.1,0.5,4,1.5
		c0.9,1,1.3,2.5,1.3,4.5c0,2-0.4,3.5-1.3,4.5c-0.9,1-2.2,1.5-4,1.5S172.7,83.4,171.8,82.4z M178.3,81.3c0.5-0.7,0.8-1.8,0.8-3.3
		v-0.2c0-1.5-0.3-2.6-0.8-3.3c-0.5-0.7-1.4-1-2.5-1s-2,0.3-2.5,1s-0.8,1.8-0.8,3.3V78c0,1.5,0.3,2.6,0.8,3.3s1.4,1,2.5,1
		S177.8,82,178.3,81.3z"/>
	<path class="st0" d="M184.1,83c-0.6-0.6-0.9-1.6-0.9-3v-7.8h1.9v7.7c0,0.9,0.2,1.6,0.6,1.9c0.4,0.4,1,0.5,1.8,0.5
		c0.6,0,1.1-0.1,1.5-0.4s0.8-0.7,1.1-1.2c0.3-0.5,0.4-1.1,0.4-1.8v-6.8h1.9v11.5H191l-0.2-1.5h-0.2c-0.8,1.2-2.1,1.8-3.9,1.8
		C185.6,83.9,184.8,83.6,184.1,83z"/>
	<path class="st0" d="M195.4,72.2h1.5l0.2,1.5h0.2c0.8-1.2,2.1-1.8,3.9-1.8c1.2,0,2,0.3,2.6,0.9c0.6,0.6,0.9,1.6,0.9,3v7.8h-1.9
		v-7.7c0-0.9-0.2-1.6-0.6-1.9c-0.4-0.4-1-0.5-1.8-0.5c-0.6,0-1.1,0.1-1.5,0.4c-0.5,0.3-0.8,0.7-1.1,1.2c-0.3,0.5-0.4,1.1-0.4,1.8
		v6.8h-1.9V72.2z"/>
	<path class="st0" d="M208,82.4c-0.8-1-1.2-2.5-1.2-4.5c0-2,0.4-3.5,1.2-4.5c0.8-1,1.8-1.5,3.2-1.5c0.8,0,1.5,0.1,2.1,0.4
		c0.6,0.2,1,0.6,1.4,1.2h0.1v-5.6h1.9v15.8h-1.4l-0.2-1.5h-0.1c-0.4,0.6-0.9,1-1.5,1.4c-0.6,0.3-1.3,0.5-2.1,0.5
		C209.9,83.9,208.8,83.4,208,82.4z M214.1,81.2c0.5-0.7,0.7-1.8,0.7-3.2v-0.1c0-1.5-0.2-2.6-0.7-3.3c-0.5-0.7-1.2-1.1-2.2-1.1
		c-0.7,0-1.3,0.1-1.8,0.4c-0.4,0.3-0.8,0.7-1,1.4c-0.2,0.6-0.3,1.5-0.3,2.6V78c0,1.1,0.1,1.9,0.3,2.6c0.2,0.6,0.5,1.1,1,1.4
		c0.4,0.3,1,0.4,1.8,0.4C212.9,82.3,213.6,81.9,214.1,81.2z"/>
</g>
<circle class="st3" cx="8.5" cy="98.2" r="3.2"/>
<ellipse class="st3" cx="4.3" cy="101" rx="4.3" ry="3.2"/>
<ellipse class="st3" cx="5.2" cy="104.7" rx="2.8" ry="2.1"/>
<ellipse class="st3" cx="8.4" cy="100.2" rx="3.2" ry="3.8"/>
<ellipse class="st3" cx="12.7" cy="103.3" rx="4.2" ry="2.3"/>
<ellipse class="st3" cx="19.5" cy="104.7" rx="1.5" ry="1.1"/>
<ellipse class="st3" cx="23.8" cy="104.7" rx="1.1" ry="0.3"/>
</svg>
