<?xml version="1.0" encoding="utf-8"?>
<!-- Generator: Adobe Illustrator 24.1.3, SVG Export Plug-In . SVG Version: 6.00 Build 0)  -->
<svg version="1.1" id="Layer_1" xmlns="http://www.w3.org/2000/svg" xmlns:xlink="http://www.w3.org/1999/xlink" x="0px" y="0px"
	 viewBox="0 0 167.3 86.9" style="enable-background:new 0 0 167.3 86.9;" xml:space="preserve">
<style type="text/css">
	.st0{fill:#B3B3B3;}
	.st1{fill:#4D7B53;}
	.st2{fill:#FFFFFF;}
</style>
<path class="st0" d="M124.6,81.7H42.7c-18.5,0-33.5-15-33.5-33.5l0,0c0-18.5,15-33.5,33.5-33.5h81.8c18.5,0,33.5,15,33.5,33.5l0,0
	C158.1,66.7,143.1,81.7,124.6,81.7z"/>
<path class="st1" d="M124.6,77H42.7C24.2,77,9.2,62,9.2,43.5l0,0C9.2,25,24.2,10,42.7,10h81.8C143,10,158,25,158,43.5l0,0
	C158.1,62,143.1,77,124.6,77z"/>
<g>
	<path class="st2" d="M27.4,36.6h2.9l4.8,12.3h-2.5l-1-2.7H26l-1,2.7h-2.4L27.4,36.6z M30.9,44.3l-1.3-3.4c-0.2-0.5-0.4-1.1-0.6-1.8
		c0-0.1-0.1-0.2-0.1-0.3c0-0.1-0.1-0.2-0.1-0.2h-0.1l-0.2,0.6L28,40.9l-1.3,3.4H30.9z"/>
	<path class="st2" d="M36.4,36.6h4.9c1.9,0,3.4,0.5,4.4,1.5c1,1,1.6,2.6,1.6,4.6c0,2.1-0.5,3.6-1.6,4.6c-1,1-2.5,1.5-4.4,1.5h-4.9
		V36.6z M41.4,46.9c1.2,0,2.1-0.3,2.7-1c0.6-0.7,0.9-1.7,0.9-3v-0.4c0-1.3-0.3-2.3-0.9-3c-0.6-0.7-1.5-1-2.7-1h-2.6v8.4H41.4z"/>
	<path class="st2" d="M49.4,36.6h4.9c1.9,0,3.4,0.5,4.4,1.5c1,1,1.6,2.6,1.6,4.6c0,2.1-0.5,3.6-1.6,4.6c-1,1-2.5,1.5-4.4,1.5h-4.9
		V36.6z M54.3,46.9c1.2,0,2.1-0.3,2.7-1c0.6-0.7,0.9-1.7,0.9-3v-0.4c0-1.3-0.3-2.3-0.9-3c-0.6-0.7-1.5-1-2.7-1h-2.6v8.4H54.3z"/>
	<path class="st2" d="M70.3,38.5h-4v-2h10.2v2h-4v10.3h-2.3V38.5z"/>
	<path class="st2" d="M79.1,47.5c-1.1-1.1-1.6-2.7-1.6-4.8s0.5-3.7,1.6-4.8c1.1-1.1,2.6-1.6,4.6-1.6c2,0,3.5,0.5,4.6,1.6
		c1.1,1.1,1.6,2.7,1.6,4.8s-0.5,3.7-1.6,4.8c-1.1,1.1-2.6,1.6-4.6,1.6C81.7,49.1,80.1,48.6,79.1,47.5z M86.5,46.1
		c0.7-0.7,1-1.8,1-3.2v-0.4c0-1.4-0.3-2.5-1-3.2c-0.7-0.7-1.6-1.1-2.9-1.1c-1.2,0-2.2,0.4-2.9,1.1c-0.7,0.7-1,1.8-1,3.2v0.4
		c0,1.4,0.3,2.5,1,3.2c0.7,0.7,1.6,1.1,2.9,1.1C84.9,47.2,85.9,46.8,86.5,46.1z"/>
	<path class="st2" d="M97.9,47.5c-1-1-1.5-2.6-1.5-4.8c0-2.1,0.5-3.7,1.5-4.8c1-1.1,2.5-1.6,4.4-1.6c1.1,0,2,0.2,2.8,0.5
		c0.8,0.4,1.5,0.9,1.9,1.6c0.5,0.7,0.7,1.6,0.7,2.6h-2.4c0-0.9-0.3-1.6-0.8-2.1c-0.6-0.5-1.3-0.7-2.2-0.7c-1.2,0-2.1,0.4-2.7,1.1
		c-0.6,0.7-0.9,1.8-0.9,3.2v0.4c0,1.4,0.3,2.5,0.9,3.2c0.6,0.7,1.5,1.1,2.8,1.1c1,0,1.7-0.2,2.3-0.7c0.6-0.5,0.8-1.2,0.8-2.1h2.3
		c0,1.5-0.5,2.7-1.5,3.5c-1,0.8-2.3,1.2-3.9,1.2C100.4,49.1,99,48.6,97.9,47.5z"/>
	<path class="st2" d="M113.5,36.6h2.9l4.8,12.3h-2.5l-1-2.7H112l-1,2.7h-2.4L113.5,36.6z M116.9,44.3l-1.3-3.4
		c-0.2-0.5-0.4-1.1-0.6-1.8c0-0.1-0.1-0.2-0.1-0.3c0-0.1-0.1-0.2-0.1-0.2h-0.1l-0.2,0.6l-0.6,1.8l-1.3,3.4H116.9z"/>
	<path class="st2" d="M122.5,36.6h6.5c1.3,0,2.3,0.3,3,1c0.7,0.7,1,1.6,1,2.7c0,0.8-0.2,1.6-0.6,2.1c-0.4,0.6-0.9,1-1.6,1.3l2.6,5.1
		H131l-2.3-4.8h-3.8v4.8h-2.3V36.6z M128.8,42.2c0.6,0,1-0.2,1.4-0.5c0.3-0.3,0.5-0.8,0.5-1.4c0-0.6-0.2-1-0.5-1.3
		c-0.3-0.3-0.8-0.5-1.4-0.5h-4v3.7H128.8z"/>
	<path class="st2" d="M138.4,38.5h-4v-2h10.2v2h-4v10.3h-2.3V38.5z"/>
</g>
</svg>
