<?xml version="1.0" encoding="utf-8"?>
<!-- Generator: Adobe Illustrator 24.1.3, SVG Export Plug-In . SVG Version: 6.00 Build 0)  -->
<svg version="1.1" id="Layer_1" xmlns="http://www.w3.org/2000/svg" xmlns:xlink="http://www.w3.org/1999/xlink" x="0px" y="0px"
	 viewBox="0 0 167.3 86.9" style="enable-background:new 0 0 167.3 86.9;" xml:space="preserve">
<style type="text/css">
	.st0{fill:#FF917B;}
	.st1{fill:#FFFFFF;}
</style>
<path class="st0" d="M124.6,77H42.7C24.2,77,9.2,62,9.2,43.5l0,0C9.2,25,24.2,10,42.7,10h81.8C143,10,158,25,158,43.5l0,0
	C158.1,62,143.1,77,124.6,77z"/>
<g>
	<path class="st1" d="M20.9,47.6c-0.9-0.8-1.4-1.9-1.4-3.4c0-0.5,0-1.1,0.1-1.6c0.3-1.9,1.1-3.4,2.2-4.4c1.2-1,2.7-1.5,4.6-1.5
		c1.6,0,2.9,0.4,3.8,1.2c0.9,0.8,1.4,1.9,1.4,3.4c0,0.5,0,1-0.1,1.6c-0.3,1.9-1.1,3.4-2.2,4.5c-1.2,1-2.7,1.6-4.6,1.6
		C23.1,48.8,21.8,48.4,20.9,47.6z M27.9,46.1c0.8-0.7,1.3-1.9,1.6-3.4c0.1-0.5,0.1-1,0.1-1.4c0-0.9-0.3-1.7-0.8-2.2
		c-0.6-0.5-1.3-0.8-2.4-0.8c-2.7,0-4.3,1.5-4.8,4.5c-0.1,0.5-0.1,1-0.1,1.4c0,1,0.3,1.7,0.8,2.2c0.6,0.5,1.3,0.8,2.4,0.8
		C26,47.2,27.1,46.8,27.9,46.1z"/>
	<path class="st1" d="M34.1,47.9c-0.8-0.6-1.2-1.5-1.2-2.7c0-0.3,0-0.7,0.1-1.1l1.3-7.3h1.9l-1.3,7.3c0,0.3-0.1,0.6-0.1,0.8
		c0,0.7,0.2,1.3,0.7,1.7c0.4,0.4,1.1,0.6,1.9,0.6c0.9,0,1.7-0.2,2.3-0.7c0.6-0.5,1-1.2,1.2-2.2l1.3-7.4h1.9l-1.3,7.4
		c-0.5,3-2.3,4.6-5.4,4.6C36,48.8,34.9,48.5,34.1,47.9z"/>
	<path class="st1" d="M49.4,38.5h-3.9l0.3-1.6h9.7l-0.3,1.6h-3.9l-1.8,10.1h-1.9L49.4,38.5z"/>
	<path class="st1" d="M61.6,47.6c-0.9-0.8-1.4-1.9-1.4-3.4c0-0.5,0-1.1,0.1-1.6c0.3-1.9,1.1-3.4,2.2-4.4c1.2-1,2.7-1.5,4.6-1.5
		c1.6,0,2.9,0.4,3.8,1.2c0.9,0.8,1.4,1.9,1.4,3.4c0,0.5,0,1-0.1,1.6c-0.3,1.9-1.1,3.4-2.2,4.5c-1.2,1-2.7,1.6-4.6,1.6
		C63.8,48.8,62.5,48.4,61.6,47.6z M68.6,46.1c0.8-0.7,1.3-1.9,1.6-3.4c0.1-0.5,0.1-1,0.1-1.4c0-0.9-0.3-1.7-0.8-2.2
		c-0.6-0.5-1.3-0.8-2.4-0.8c-2.7,0-4.3,1.5-4.8,4.5c-0.1,0.5-0.1,1-0.1,1.4c0,1,0.3,1.7,0.8,2.2c0.6,0.5,1.3,0.8,2.4,0.8
		C66.7,47.2,67.8,46.8,68.6,46.1z"/>
	<path class="st1" d="M75,36.9h8.4l-0.3,1.6h-6.5L76,42h5.9l-0.3,1.6h-5.9l-0.9,5h-1.9L75,36.9z"/>
	<path class="st1" d="M89.5,48.1c-0.9-0.5-1.3-1.2-1.3-2.2c0-0.4,0-0.7,0.1-1h1.9c0,0,0,0.1-0.1,0.3c0,0.1-0.1,0.3-0.1,0.4
		c0,0.5,0.2,0.9,0.7,1.2c0.5,0.3,1.1,0.4,1.9,0.4c1.1,0,1.9-0.2,2.5-0.5c0.6-0.3,0.9-0.8,0.9-1.4c0-0.4-0.1-0.6-0.4-0.9
		c-0.3-0.2-0.6-0.4-0.9-0.6c-0.4-0.1-0.9-0.3-1.5-0.5c-0.8-0.2-1.5-0.5-2-0.7s-0.9-0.5-1.3-0.9c-0.4-0.4-0.5-0.9-0.5-1.6
		c0-0.8,0.2-1.4,0.7-1.9c0.4-0.5,1-0.9,1.8-1.2c0.7-0.3,1.5-0.4,2.4-0.4c1.3,0,2.4,0.2,3.2,0.7c0.8,0.4,1.2,1.1,1.2,2
		c0,0.3,0,0.5-0.1,0.9h-1.9c0-0.2,0.1-0.3,0.1-0.5c0-0.5-0.2-0.8-0.7-1.1c-0.4-0.3-1-0.4-1.7-0.4c-0.9,0-1.6,0.1-2.2,0.4
		c-0.6,0.3-0.8,0.7-0.8,1.2c0,0.3,0.1,0.6,0.4,0.8c0.2,0.2,0.5,0.4,0.9,0.5c0.4,0.1,0.9,0.3,1.5,0.5c0.8,0.2,1.5,0.5,2,0.7
		c0.5,0.2,1,0.5,1.3,0.9c0.4,0.4,0.6,0.9,0.6,1.6c0,0.9-0.2,1.6-0.7,2.2c-0.5,0.6-1.1,1-1.9,1.3c-0.8,0.3-1.6,0.4-2.5,0.4
		C91.5,48.8,90.4,48.6,89.5,48.1z"/>
	<path class="st1" d="M104.3,38.5h-3.9l0.3-1.6h9.7l-0.3,1.6h-3.9l-1.8,10.1h-1.9L104.3,38.5z"/>
	<path class="st1" d="M111.7,47.6c-0.9-0.8-1.4-1.9-1.4-3.4c0-0.5,0-1.1,0.1-1.6c0.3-1.9,1.1-3.4,2.2-4.4c1.2-1,2.7-1.5,4.6-1.5
		c1.6,0,2.9,0.4,3.8,1.2c0.9,0.8,1.4,1.9,1.4,3.4c0,0.5,0,1-0.1,1.6c-0.3,1.9-1.1,3.4-2.2,4.5c-1.2,1-2.7,1.6-4.6,1.6
		C113.9,48.8,112.6,48.4,111.7,47.6z M118.7,46.1c0.8-0.7,1.3-1.9,1.6-3.4c0.1-0.5,0.1-1,0.1-1.4c0-0.9-0.3-1.7-0.8-2.2
		c-0.6-0.5-1.3-0.8-2.4-0.8c-2.7,0-4.3,1.5-4.8,4.5c-0.1,0.5-0.1,1-0.1,1.4c0,1,0.3,1.7,0.8,2.2c0.6,0.5,1.3,0.8,2.4,0.8
		C116.9,47.2,117.9,46.8,118.7,46.1z"/>
	<path class="st1" d="M123.4,44.3c0-1.3,0.2-2.6,0.7-3.7c0.4-1.1,1.1-2,1.9-2.6c1.1-0.9,2.5-1.3,4.2-1.3c1.4,0,2.5,0.3,3.4,0.9
		c0.8,0.6,1.2,1.5,1.2,2.6c0,0.3,0,0.6-0.1,1h-1.9c0-0.3,0.1-0.5,0.1-0.7c0-0.7-0.2-1.3-0.7-1.7c-0.5-0.4-1.1-0.6-1.9-0.6
		c-1.2,0-2.2,0.3-3,1c-0.8,0.7-1.3,1.7-1.6,2.9c-0.1,0.7-0.2,1.4-0.2,2c0,1,0.2,1.8,0.7,2.3c0.5,0.5,1.2,0.7,2.2,0.7
		c1.1,0,1.9-0.2,2.6-0.7c0.7-0.5,1.1-1.2,1.3-2.1h1.9c-0.3,1.5-0.9,2.6-1.9,3.3c-1,0.7-2.3,1.1-3.8,1.1
		C125.1,48.8,123.4,47.3,123.4,44.3z"/>
	<path class="st1" d="M137.5,36.9h1.9l-1.1,6.2l6.9-6.2h2.5l-5.3,4.7l3.4,7h-2.1l-2.7-5.7l-3,2.4l-0.6,3.3h-1.9L137.5,36.9z"/>
</g>
</svg>
