<?xml version="1.0" encoding="utf-8"?>
<!-- Generator: Adobe Illustrator 24.1.3, SVG Export Plug-In . SVG Version: 6.00 Build 0)  -->
<svg version="1.1" id="Layer_1" xmlns="http://www.w3.org/2000/svg" xmlns:xlink="http://www.w3.org/1999/xlink" x="0px" y="0px"
	 viewBox="0 0 167.3 86.9" style="enable-background:new 0 0 167.3 86.9;" xml:space="preserve">
<style type="text/css">
	.st0{fill:#4D7B53;}
	.st1{fill:#FFFFFF;}
</style>
<path class="st0" d="M124.6,77H42.7C24.2,77,9.2,62,9.2,43.5l0,0C9.2,25,24.2,10,42.7,10h81.8C143,10,158,25,158,43.5l0,0
	C158.1,62,143.1,77,124.6,77z"/>
<g>
	<path class="st1" d="M28.4,35.5h9.2c0.8,0,1.6,0.2,2.3,0.5c0.7,0.3,1.2,0.8,1.6,1.4c0.4,0.6,0.6,1.3,0.6,2.1c0,0.9-0.2,1.7-0.7,2.3
		c-0.5,0.6-1.1,1.1-1.9,1.3v0.1c0.9,0.2,1.6,0.6,2.2,1.3c0.6,0.7,0.9,1.5,0.9,2.5c0,1.4-0.5,2.6-1.4,3.3c-0.9,0.8-2.1,1.2-3.5,1.2
		h-9.2V35.5z M36.6,41.8c0.6,0,1.1-0.2,1.4-0.5c0.3-0.3,0.5-0.7,0.5-1.2c0-0.6-0.2-1-0.5-1.4c-0.3-0.3-0.8-0.5-1.3-0.5h-5v3.5H36.6z
		 M37,48.6c0.6,0,1.1-0.2,1.4-0.5c0.4-0.3,0.6-0.8,0.6-1.5c0-0.6-0.2-1-0.6-1.4s-0.9-0.5-1.6-0.5h-5v3.9H37z"/>
	<path class="st1" d="M47,50.1c-1.2-1.1-1.8-2.6-1.8-4.6v-10h3.4v9.9c0,1.1,0.3,2,0.9,2.6c0.6,0.6,1.4,0.9,2.6,0.9
		c1.1,0,2-0.3,2.6-0.9c0.6-0.6,0.9-1.5,0.9-2.6v-9.9h3.4v10c0,2-0.6,3.6-1.8,4.6c-1.2,1.1-2.9,1.6-5.1,1.6
		C49.9,51.7,48.2,51.2,47,50.1z"/>
	<path class="st1" d="M66.6,45l-6.1-9.5h3.8l4,6.5h0.1l3.9-6.5H76L69.9,45v6.5h-3.4V45z"/>
	<path class="st1" d="M83.6,35.5h3.3l6.1,8.7c0.2,0.3,0.5,0.8,0.9,1.6l0.1-0.1L94,44.3v-8.8h3.3v16H94l-6.2-8.8
		c-0.3-0.4-0.6-0.9-0.9-1.5l-0.1,0.1c0,0.7,0.1,1.1,0.1,1.4v8.8h-3.3V35.5z"/>
	<path class="st1" d="M102,49.7c-1.4-1.4-2.1-3.4-2.1-6.2c0-2.8,0.7-4.8,2.1-6.2c1.4-1.4,3.4-2.1,6-2.1c2.6,0,4.6,0.7,6,2.1
		c1.4,1.4,2.1,3.4,2.1,6.2c0,2.8-0.7,4.8-2.1,6.2c-1.4,1.4-3.4,2.1-6,2.1C105.4,51.7,103.4,51,102,49.7z M111.4,47.5
		c0.8-0.9,1.2-2.1,1.2-3.7v-0.7c0-1.6-0.4-2.9-1.2-3.7c-0.8-0.9-1.9-1.3-3.5-1.3c-1.5,0-2.7,0.4-3.4,1.3c-0.8,0.9-1.2,2.1-1.2,3.7
		v0.7c0,1.6,0.4,2.9,1.2,3.7c0.8,0.9,1.9,1.3,3.4,1.3C109.4,48.9,110.6,48.4,111.4,47.5z"/>
	<path class="st1" d="M117,35.5h3.6l2.3,9.8c0.1,0.4,0.2,1.2,0.4,2.2h0.1c0.1-1.1,0.3-1.8,0.4-2.2l2.4-9.8h4.1l2.3,9.8
		c0.1,0.4,0.2,1.1,0.4,2.2h0.1c0.1-1,0.2-1.7,0.4-2.2l2.4-9.8h3.1l-4.2,16H131l-2.6-10.2c-0.1-0.5-0.3-1.3-0.4-2.3h-0.1
		c-0.2,1.1-0.3,1.8-0.4,2.3l-2.6,10.2h-3.7L117,35.5z"/>
</g>
</svg>
