<?xml version="1.0" encoding="utf-8"?>
<!-- Generator: Adobe Illustrator 24.1.3, SVG Export Plug-In . SVG Version: 6.00 Build 0)  -->
<svg version="1.1" id="Layer_1" xmlns="http://www.w3.org/2000/svg" xmlns:xlink="http://www.w3.org/1999/xlink" x="0px" y="0px"
	 viewBox="0 0 171.82 31.72" style="enable-background:new 0 0 171.82 31.72;" xml:space="preserve">
<style type="text/css">
	.st0{fill:#4E7B53;}
	.st1{fill:#FFFFFF;}
</style>
<rect class="st0" width="171.82" height="31.72"/>
<g>
	<path class="st1" d="M10.51,10.13h3.92l1.66,6.56c0.13,0.5,0.31,1.39,0.55,2.69h0.09c0.21-1.35,0.37-2.25,0.49-2.69l1.66-6.56h3.75
		v11.9h-2.51v-7.58c0-0.34,0.03-0.97,0.1-1.91h-0.09l-0.36,1.41l-2.05,8.08h-2.39l-2.05-8.08l-0.36-1.41h-0.09
		c0.07,0.97,0.1,1.61,0.1,1.91v7.58h-2.43V10.13z"/>
	<path class="st1" d="M26.03,20.73c-1-1.01-1.5-2.56-1.5-4.65c0-2.05,0.53-3.58,1.6-4.61c1.06-1.03,2.57-1.54,4.51-1.54
		c1.03,0,1.97,0.16,2.82,0.48c0.85,0.32,1.53,0.8,2.03,1.44c0.5,0.64,0.75,1.42,0.75,2.35h-2.6c0-0.65-0.29-1.17-0.86-1.55
		c-0.57-0.39-1.26-0.58-2.06-0.58c-1.21,0-2.12,0.32-2.71,0.97c-0.6,0.65-0.89,1.58-0.89,2.79v0.52c0,1.27,0.27,2.22,0.82,2.84
		c0.55,0.62,1.39,0.93,2.52,0.93c0.94,0,1.71-0.22,2.32-0.67c0.61-0.45,0.93-1.05,0.94-1.81h-3.61v-2.06h6.12v6.47H34.5l-0.23-1.32
		c-0.56,0.53-1.14,0.92-1.75,1.16c-0.61,0.24-1.36,0.36-2.24,0.36C28.44,22.23,27.03,21.73,26.03,20.73z"/>
	<path class="st1" d="M38.45,10.13h6.82c0.62,0,1.19,0.12,1.7,0.37c0.51,0.25,0.91,0.6,1.2,1.04c0.29,0.45,0.43,0.96,0.43,1.54
		c0,0.66-0.18,1.23-0.55,1.71c-0.36,0.48-0.83,0.81-1.4,1v0.07c0.67,0.13,1.22,0.45,1.64,0.98c0.42,0.53,0.63,1.15,0.63,1.86
		c0,1.08-0.34,1.9-1.03,2.47c-0.69,0.57-1.56,0.86-2.63,0.86h-6.82V10.13z M44.56,14.88c0.46,0,0.82-0.12,1.08-0.36
		c0.25-0.24,0.38-0.54,0.38-0.91c0-0.44-0.12-0.77-0.36-1.01c-0.24-0.23-0.56-0.35-0.98-0.35h-3.69v2.62H44.56z M44.85,19.89
		c0.44,0,0.8-0.13,1.08-0.38c0.28-0.25,0.42-0.62,0.42-1.09c0-0.43-0.14-0.77-0.42-1.04c-0.28-0.27-0.68-0.4-1.21-0.4h-3.73v2.91
		H44.85z"/>
	<path class="st1" d="M50.98,10.13h4.93c1.82,0,3.22,0.49,4.21,1.48s1.48,2.48,1.48,4.47c0,1.99-0.49,3.48-1.48,4.47
		c-0.99,0.99-2.39,1.48-4.21,1.48h-4.93V10.13z M55.9,19.89c1.02,0,1.79-0.31,2.32-0.93c0.53-0.62,0.79-1.49,0.79-2.63v-0.52
		c0-1.13-0.26-2.01-0.79-2.63c-0.53-0.62-1.3-0.93-2.32-0.93h-2.41v7.63H55.9z"/>
	<path class="st1" d="M71.2,10.13h3.16l4.65,11.9h-2.74l-0.85-2.27H70l-0.85,2.27h-2.6L71.2,10.13z M74.62,17.66l-1.13-3.02
		c-0.14-0.37-0.39-1.15-0.75-2.34h-0.09c-0.36,1.19-0.61,1.97-0.75,2.34l-1.13,3.02H74.62z"/>
	<path class="st1" d="M81.03,21.47c-0.54-0.51-0.81-1.32-0.81-2.45V12.9h2.38v5.62c0,0.57,0.13,0.98,0.4,1.23
		c0.27,0.25,0.66,0.38,1.18,0.38c0.53,0,0.97-0.19,1.33-0.56c0.35-0.38,0.53-0.84,0.53-1.4V12.9h2.38v9.12h-2.03l-0.17-1.2h-0.12
		c-0.74,0.94-1.69,1.41-2.84,1.41C82.3,22.23,81.56,21.98,81.03,21.47z"/>
	<path class="st1" d="M91.48,21.54c-0.37-0.46-0.55-1.05-0.55-1.75v-4.94h-1.09V12.9h1.14l0.4-2.57h1.93v2.57h1.58v1.94H93.3v4.7
		c0,0.5,0.25,0.75,0.75,0.75h0.83v1.67c-0.2,0.07-0.44,0.13-0.74,0.19c-0.29,0.06-0.57,0.09-0.82,0.09
		C92.46,22.23,91.85,22,91.48,21.54z"/>
	<path class="st1" d="M97.22,21.07c-0.76-0.77-1.14-1.98-1.14-3.61c0-1.63,0.38-2.83,1.14-3.61c0.76-0.77,1.93-1.16,3.49-1.16
		s2.73,0.39,3.49,1.16c0.77,0.77,1.15,1.98,1.15,3.61c0,1.63-0.38,2.83-1.15,3.61c-0.77,0.77-1.93,1.16-3.49,1.16
		S97.98,21.85,97.22,21.07z M102.39,19.62c0.35-0.44,0.52-1.12,0.52-2.02v-0.28c0-0.9-0.17-1.58-0.52-2.02
		c-0.35-0.45-0.91-0.67-1.68-0.67c-0.77,0-1.33,0.22-1.67,0.67s-0.51,1.12-0.51,2.02v0.28c0,0.9,0.17,1.58,0.51,2.02
		c0.34,0.45,0.9,0.67,1.67,0.67C101.48,20.29,102.04,20.07,102.39,19.62z"/>
	<path class="st1" d="M107.24,12.9h2.03l0.17,1.2h0.12c0.67-0.94,1.54-1.41,2.6-1.41c1.16,0,1.95,0.47,2.39,1.41h0.14
		c0.69-0.94,1.6-1.41,2.71-1.41c0.87,0,1.56,0.25,2.07,0.76c0.51,0.51,0.77,1.32,0.77,2.45v6.12h-2.38v-5.62
		c0-1.07-0.45-1.61-1.34-1.61c-0.46,0-0.84,0.19-1.14,0.56c-0.3,0.38-0.45,0.84-0.45,1.4v5.27h-2.38v-5.62
		c0-1.07-0.45-1.61-1.34-1.61c-0.46,0-0.85,0.19-1.15,0.56c-0.31,0.38-0.46,0.84-0.46,1.4v5.27h-2.38V12.9z"/>
	<path class="st1" d="M123.24,21.07c-0.76-0.77-1.14-1.98-1.14-3.61c0-1.63,0.38-2.83,1.14-3.61c0.76-0.77,1.93-1.16,3.49-1.16
		s2.73,0.39,3.49,1.16c0.77,0.77,1.15,1.98,1.15,3.61c0,1.63-0.38,2.83-1.15,3.61c-0.77,0.77-1.93,1.16-3.49,1.16
		S124,21.85,123.24,21.07z M128.4,19.62c0.35-0.44,0.52-1.12,0.52-2.02v-0.28c0-0.9-0.17-1.58-0.52-2.02
		c-0.35-0.45-0.91-0.67-1.68-0.67c-0.77,0-1.33,0.22-1.67,0.67c-0.34,0.45-0.51,1.12-0.51,2.02v0.28c0,0.9,0.17,1.58,0.51,2.02
		c0.34,0.45,0.9,0.67,1.67,0.67C127.5,20.29,128.06,20.07,128.4,19.62z"/>
	<path class="st1" d="M133.87,21.54c-0.37-0.46-0.55-1.05-0.55-1.75v-4.94h-1.09V12.9h1.14l0.4-2.57h1.93v2.57h1.58v1.94h-1.58v4.7
		c0,0.5,0.25,0.75,0.75,0.75h0.83v1.67c-0.2,0.07-0.44,0.13-0.74,0.19c-0.29,0.06-0.57,0.09-0.82,0.09
		C134.85,22.23,134.24,22,133.87,21.54z"/>
	<path class="st1" d="M139.02,9.49h2.38v2.25h-2.38V9.49z M139.02,12.9h2.38v9.12h-2.38V12.9z"/>
	<path class="st1" d="M142.78,12.9h2.48l1.42,3.92c0.16,0.44,0.42,1.35,0.76,2.74h0.09c0.32-1.31,0.58-2.22,0.76-2.74l1.41-3.92
		h2.41l-3.42,9.12h-2.52L142.78,12.9z"/>
	<path class="st1" d="M153.98,21.07c-0.72-0.77-1.08-1.98-1.08-3.61c0-1.63,0.36-2.83,1.08-3.61c0.72-0.77,1.82-1.16,3.29-1.16
		c1.35,0,2.36,0.39,3.04,1.17c0.67,0.78,1.01,1.98,1.01,3.6v0.55h-6c0.02,0.81,0.18,1.41,0.49,1.8s0.8,0.58,1.51,0.58
		c0.5,0,0.9-0.14,1.21-0.42c0.31-0.28,0.46-0.67,0.46-1.18h2.34c0,1.14-0.37,2-1.11,2.58c-0.74,0.57-1.72,0.86-2.93,0.86
		C155.8,22.23,154.7,21.85,153.98,21.07z M158.84,16.44c0-1.26-0.53-1.89-1.58-1.89c-0.6,0-1.06,0.16-1.36,0.47
		c-0.31,0.31-0.49,0.79-0.56,1.42H158.84z"/>
</g>
</svg>
