<?xml version="1.0" encoding="utf-8"?>
<!-- Generator: Adobe Illustrator 24.1.3, SVG Export Plug-In . SVG Version: 6.00 Build 0)  -->
<svg version="1.1" id="Layer_1" xmlns="http://www.w3.org/2000/svg" xmlns:xlink="http://www.w3.org/1999/xlink" x="0px" y="0px"
	 viewBox="0 0 141 129.4" style="enable-background:new 0 0 141 129.4;" xml:space="preserve">
<style type="text/css">
	.st0{fill:#C1C1C1;}
	.st1{fill:#3A3A3A;}
	.st2{fill:#0A0B0D;}
	.st3{fill:#000103;}
	.st4{fill:#0D0F11;}
	.st5{fill:#060709;}
	.st6{fill:#797A7B;}
	.st7{fill:#F1F0F3;}
	.st8{fill:#C1C1C4;}
	.st9{fill:#D7D7D9;}
	.st10{fill:#C0C1C2;}
	.st11{fill:#A0A1A2;}
	.st12{fill:#DCDCDE;}
	.st13{fill:#EFEFF1;}
	.st14{fill:#AFB0B2;}
	.st15{fill:#999A9E;}
	.st16{fill:#858587;}
	.st17{fill:#26272A;}
	.st18{fill:#E8E8E9;}
	.st19{fill:#E3E3E5;}
	.st20{fill:#C3C3C5;}
	.st21{fill:#888A8D;}
	.st22{fill:#69696A;}
	.st23{fill:#4A4A4C;}
	.st24{fill:#3F4142;}
	.st25{fill:#55565A;}
	.st26{fill:#919194;}
	.st27{fill:#232325;}
	.st28{fill:#A1A1A2;}
	.st29{fill:#C6C5C7;}
	.st30{fill:#292C2E;}
	.st31{fill:#B2B2B4;}
	.st32{fill:#8F8F91;}
	.st33{fill:#545657;}
	.st34{fill:#67696A;}
	.st35{fill:#3B3C3F;}
	.st36{fill:#2E3032;}
	.st37{fill:#1B1C1D;}
	.st38{fill:#414445;}
	.st39{fill:#626264;}
	.st40{fill:#515254;}
	.st41{fill:#3D3E40;}
	.st42{fill:#636566;}
	.st43{fill:#2D2F30;}
	.st44{fill:#58595B;}
	.st45{fill:#868789;}
	.st46{fill:#969798;}
	.st47{fill:#141416;}
	.st48{fill:#A9AAAD;}
	.st49{fill:#514D4F;}
	.st50{fill:#5A585A;}
	.st51{fill:#A0A0A2;}
	.st52{fill:#6C6E71;}
	.st53{fill:#D4D4D5;}
	.st54{fill:#494748;}
	.st55{fill:#535558;}
	.st56{fill:#E8E8EB;}
	.st57{fill:#B0B0B2;}
	.st58{fill:#C9C9C8;}
	.st59{fill:#B8B9B9;}
	.st60{fill:#BEBEC0;}
	.st61{fill:#A4A5A7;}
	.st62{fill:#E1E2E4;}
	.st63{fill:#7D7F80;}
	.st64{fill:#DFDFE1;}
	.st65{fill:#D9D9DB;}
	.st66{fill:#CACACC;}
	.st67{fill:#CECFD0;}
	.st68{fill:#D4D5D7;}
	.st69{fill:#B8B9BB;}
	.st70{fill:#C6C6C8;}
	.st71{fill:#A09FA1;}
	.st72{fill:#6A6B6E;}
	.st73{fill:#85868A;}
	.st74{fill:#E5E5E9;}
	.st75{fill:#6D6D6E;}
	.st76{fill:#D9D9DC;}
	.st77{fill:#DDDDE1;}
	.st78{fill:#CFD0D3;}
	.st79{fill:#717074;}
	.st80{fill:#B1B0B4;}
	.st81{fill:#B9B8BC;}
	.st82{fill:#5D5C60;}
	.st83{fill:#C2C2C6;}
	.st84{fill:#68676B;}
	.st85{fill:#66666A;}
	.st86{fill:#B6B3B6;}
	.st87{fill:#DDDDE0;}
	.st88{fill:#6A6A6E;}
	.st89{fill:#5C5B5F;}
	.st90{fill:#525256;}
	.st91{fill:#57565A;}
	.st92{fill:#5F5E5F;}
	.st93{fill:#B1B2B4;}
	.st94{fill:#BBBCBD;}
	.st95{fill:#6D6B6E;}
	.st96{fill:#68686A;}
	.st97{fill:#A2A1A3;}
	.st98{fill:#5F5E60;}
	.st99{fill:#ACABAD;}
	.st100{fill:#6C6D6F;}
	.st101{fill:#818082;}
	.st102{fill:#383739;}
	.st103{fill:#3B373A;}
	.st104{fill:#848387;}
	.st105{fill:#B3B3B5;}
	.st106{fill:#B7B7BB;}
	.st107{fill:#5C5D60;}
	.st108{fill:#535256;}
	.st109{fill:#555457;}
	.st110{fill:#58575B;}
	.st111{fill:#414143;}
	.st112{fill:#515153;}
	.st113{fill:#535355;}
	.st114{fill:#464547;}
	.st115{fill:#949596;}
	.st116{fill:#8C8C90;}
	.st117{fill:#434346;}
	.st118{fill:#E2E3E6;}
	.st119{fill:#A7A6AA;}
	.st120{fill:#A5A4A8;}
	.st121{fill:#5C5C5F;}
	.st122{fill:#545257;}
	.st123{fill:#4D4B4D;}
	.st124{fill:#717274;}
</style>
<path class="st0" d="M120.4,10.4H20.5c-7.7,0-14,6.3-14,14v84.7c0,7.7,6.3,14,14,14h99.9c7.7,0,14-6.3,14-14V24.4
	C134.5,16.6,128.2,10.4,120.4,10.4z M20.5,13.2h99.9c6.2,0,11.2,5,11.2,11.2V104c-2-3.8-6-6.3-10.6-6.3H19.9
	c-4.6,0-8.6,2.6-10.6,6.3V24.4C9.4,18.2,14.4,13.2,20.5,13.2z"/>
<polygon points="7.9,17.9 7.9,106.7 96.8,106.7 133,106.7 133,18.7 127.3,11.2 121.5,9.6 18.5,9.6 11.5,13.6 "/>
<path class="st1" d="M120.4,8.4H20.5c-7.7,0-14,6.3-14,14v84.7c0,7.7,6.3,14,14,14h99.9c7.7,0,14-6.3,14-14V22.4
	C134.5,14.6,128.2,8.4,120.4,8.4z M20.5,11.2h99.9c6.2,0,11.2,5,11.2,11.2V102c-2-3.8-6-6.3-10.6-6.3H19.9c-4.6,0-8.6,2.6-10.6,6.3
	V22.4C9.4,16.2,14.4,11.2,20.5,11.2z"/>
<g>
	<path class="st2" d="M118.3,74.3c-1.4,0-2.8,0-4.2,0c0.6-1.3,0.5-1.6-1.1-2.1c-2.7-0.9-5.5-1-8.3-1.2c-3.7-0.2-7.4-0.5-11.2-0.3
		c-4.2,0.2-8.4-0.2-12.6,0C77.7,71,74.5,71,71.2,71c-0.6,0-1.2,0.2-1.5-0.6c0.6-0.7,1.5-0.6,2.4-0.6c4.9,0,9.7,0,14.6,0
		c4.6,0,9.2-0.2,13.8-0.2c5.3,0,10.6,0.6,15.7,2.4c4.4,1.6,8.7,0.7,12.7-1.6c0.3-0.1,0.5-0.3,0.7-0.6c0.4-0.5,0.3-0.9-0.2-1.1
		c-0.2-0.1-0.4-0.1-0.6-0.2c-0.9-0.4-1.1-0.9-0.6-1.8c0.1-0.3,0.3-0.5,0.5-0.7c0.2-0.2,0.4-0.5,0.5-0.7c-0.3,0.1-0.4,0.3-0.7,0.3
		c-0.6-0.2-0.4-0.6-0.3-0.9c0.6-0.9,0.1-1.1-0.7-1c-0.8,0.3-1.7,0.4-2.6,0.6c-0.8,0.1-1.6,0.4-2.4,0.4c-0.6-0.1-1.1-0.3-1.6-0.5
		c-0.5-0.3-0.9-0.8-1.4-1.2c-2.3-2-2.5-4.3-1.5-7c0.6-1.1,1.3-1.9,2.6-1.8c1,0.1,1.8-0.7,2.7-0.6c0.2,0,0.5,0.1,0.6-0.2
		c0.1-0.2-0.1-0.4-0.3-0.5c-0.3-0.2-0.6-0.3-0.9-0.4c-0.3,0-0.5,0-0.8-0.1c-0.2,0-0.3,0-0.5-0.1c-0.1,0-0.2-0.1-0.3-0.1
		c-1.5-0.3-2.9-0.4-4.4-0.1c-0.5,0.1-1,0.3-1.6,0.4c-0.2,0.1-0.5,0.1-0.7,0.2c-0.3,0.1-0.6,0.3-0.9,0.4c-0.3,0.1-0.6,0.3-0.9,0.5
		c-0.3,0.2-0.6,0.5-1,0.6c-1.6,0.8-3.2,1.4-4.8,2.1c-0.7,0.3-1.5,0.5-2.3,0.7c-1.7,0.4-3.5,0.2-5.3,0.2c-6.2,0-12.5,0-18.7,0
		c-1.7,0-3.4,0-5.1,0C74.8,57,74.1,57,73.4,57c-11.1,0-22.2,0-33.3,0c-1.5,0-3.1-0.1-4.6-0.6c-1-0.5-2.2-0.8-3.2-1.2
		c-0.1,0-0.2-0.1-0.3-0.1c-0.6-0.3-1.2-0.8-1.9-0.5c-0.7-0.2-0.9-0.8-1.3-1.2c-0.4-0.5-0.8-0.8-1.4-1.1c-0.2-0.1-0.5-0.2-0.7-0.3
		c-0.2-0.3-0.7-0.3-0.5-0.9c0.6-0.4,1.3-0.2,1.9-0.1c1.5,0.5,2.6,0.3,3.5-1.1c0.7-1.2,1.4-1.2,2.6-0.6c0.6,0.3,1.1,0.3,1.7-0.1
		c0.5-0.3,1.1-0.5,1.7-0.5c0.8,0.1,1.4-0.2,1.9-0.7c30.2,0,60.3,0,90.5,0c0.8,0,1,0.2,1,1c0,8.2,0,16.4,0,24.6
		c0,0.7-0.1,0.8-0.8,0.8c-3.4,0-6.7,0-10.1,0c-0.4-0.3-1-0.3-1.4-0.4C118.2,73.9,118.5,74.3,118.3,74.3z"/>
	<path class="st3" d="M128.2,65.5c0.6-0.3,0.9-1,1.7-1.2c-0.2,0.9-0.6,1.6-1.3,2.2c-0.3,0.3-0.7,0.7-0.5,1.2
		c0.2,0.5,0.7,0.3,1.1,0.4c0.5,0.1,1,0.3,1.2,0.8c0.2,0.6-0.2,1-0.6,1.3c-2.2,1.6-4.6,2.3-7.2,2.8c-3.6,0.6-6.7-0.8-10-1.7
		c-2.5-0.7-5-1.1-7.6-1.1c-11-0.1-21.9,0-32.9,0c-0.8,0-1.5,0.2-2.3,0.2c-0.4,0.5-1,0.4-1.5,0.4c-1.8,0-3.5,0-5.3,0
		c-5.8,0.1-11.6,0.2-17.4,0.3c-4.5,0.1-8.9,0.2-13.3,1.5c-0.5,0.1-1,0.2-1.5,0.5c-1.1,0.6-2.2,1.1-3.4,1.4c-3.7,0-7.4,0-11.1,0
		c-0.5-0.3-1.1-0.2-1.6-0.3c-0.7-0.1-1.4-0.5-1.5-1.3c-0.1-0.8,0.4-1.2,1.1-1.4c0.7-0.2,1-0.5,0.6-1.2c-0.4-0.7-0.1-1.1,0.8-0.9
		c1.6,0.3,3.2,0.5,4.8,0.7c2,0.3,4-0.1,5.9-0.2c2.4-0.1,4.3-1.6,6.4-2.6c2.8-1.3,5.7-2,8.8-2.2c9.5-0.4,19-0.2,28.5-0.2
		c10.3,0,20.6,0.3,30.9,0.2c4.5,0,8.8,1.1,12.9,3.1c4.1,2.1,8.1,1.7,11.9-0.8c0.6-0.4,1.2-0.6,1.5-1.3
		C127.6,65.7,127.8,65.4,128.2,65.5z"/>
	<path class="st4" d="M27.5,74.3c1.3-0.8,2.6-1.7,4.1-2.1c3-0.8,6-1.3,9.1-1.4c4.2-0.2,8.5-0.3,12.7-0.4c5.5-0.1,11-0.1,16.4-0.1
		c0.2,0.2,0.5,0.2,0.7,0.2c2.4,0.1,4.8,0.1,7.2,0.1c1.7,0,3.4-0.3,5.1-0.3c2.2,0.1,4.4,0,6.5,0.2c1.8,0.1,3.5-0.3,5.3-0.2
		c3,0.2,6,0.1,9,0.3c2.3,0.2,4.6,0.2,6.9,0.6c1.5,0.3,3.1,0.6,4.4,1.5c0.6,0.4,0.3,0.8,0,1c-0.2,0.2-0.6,0.4-0.9,0.5
		C85.2,74.3,56.3,74.3,27.5,74.3z"/>
	<path class="st5" d="M127.8,65.9c0,0.6-0.5,0.9-0.9,1.2c-2.1,1.3-4.4,2.5-6.9,2.7c-1.9,0.1-3.7-0.3-5.4-1.1c-3-1.4-6.1-2.7-9.5-3.1
		c-1.3-0.2-2.6-0.3-3.8-0.3c-2.5,0-5,0-7.5,0c-15.2-0.2-30.4-0.2-45.6-0.2c-3.2,0-6.4,0-9.5,0.5c-2,0.3-3.9,0.9-5.7,1.9
		c-1.3,0.7-2.6,1.4-3.9,2c-1.6,0.7-3.4,0.7-5.1,0.8c-3,0.1-5.9-0.3-8.9-1c0,0.5,0.4,0.8,0.7,1.1c0.7,0.6,0.4,0.8-0.3,1
		c-0.3,0.1-0.6,0.1-0.9,0.2c-0.5,0.1-1,0.3-1,1c0,0.6,0.5,0.9,1,1c0.6,0.2,1.3,0.2,1.8,0.7c-1.3,0-2.6,0-3.9,0
		c-0.5,0-0.6-0.1-0.6-0.6c0-2.2,0-4.5,0-6.7c1.6-0.5,3.3-1,5-0.5c0.4,0.5-0.1,0.6-0.4,0.8c-0.3,0.2-0.8,0.2-1.1,0.7
		c1.2,0.6,2.5,0.8,3.8,0.9c0.1,0,0.2,0,0.3,0.1c1.1,0.1,2.2,0.6,3.3,0.2c0.4-0.1,0.8,0,1.1-0.2c0.5-0.2,1-0.2,1.5-0.4
		c0.7-0.2,1.4-0.4,2-0.8c0.7-0.3,1.3-0.7,1.9-1.2c0.1-0.1,0.2-0.1,0.3-0.2c0.4-0.3,0.8-0.7,1.4-0.3c0.2,0.1,0.4,0,0.5-0.1
		c1-0.9,2.3-1.1,3.4-1.7c0.4-0.3,1-0.3,1.5-0.4c2.4-0.4,4.8-0.8,7.3-0.7c2.6,0.1,5.2-0.2,7.7-0.1c4,0.2,8-0.1,12,0.2
		c1.5,0.3,3.1,0.3,4.6,0c0.6-0.1,1.2-0.1,1.8,0c0.5,0.2,1,0.1,1.5,0.1c3.5,0,7,0,10.5,0c0.7,0,1.3,0,2,0c1.7,0,3.5,0.1,5.2,0
		c0.1,0,0.3,0,0.4,0c1.3-0.1,2.5,0.1,3.8-0.1c0.3-0.1,0.5-0.1,0.8,0c1.1,0.3,2.2,0.1,3.2,0.1c0.1,0,0.3,0,0.4,0c1.1,0,2.1,0,3.2,0
		c0.9,0,1.9,0,2.8,0c0.7,0.3,1.5,0.1,2.2,0.2c1.7,0.3,3.3,0.7,4.9,1.3c1.4,0.6,3,0.9,4.4,1.4c0.3,0.2,0.6,0.3,0.8,0.6
		c1.7,1.4,3.7,1.5,5.7,1.2c0.5-0.1,1.1-0.2,1.6-0.3c1.1-0.1,2-0.8,2.9-1.4C126.8,66.2,127.2,65.8,127.8,65.9z"/>
	<path class="st5" d="M39.4,48c-0.3,0.9-0.8,1.3-1.7,1c-0.6-0.2-1.1,0-1.6,0.4c-0.8,0.6-1.6,0.6-2.3,0c-0.5-0.5-0.7-0.4-1.2-0.1
		c-0.4,0.3-0.9,0.7-1.1,1.2c-0.5,1-1.3,1.3-2.3,1.1c-1-0.2-2-0.6-3-0.4c-0.2,0.2-0.4,0.2-0.7,0.2c-1.6-0.3-3.2-0.1-4.8,0.4
		c-1.1,0.4-2.2,0.8-3.1,1.6c-0.8,0.4-1.6,0.9-2.3,1.5c-0.5,0.4-1.1,0.7-1.5,1.3c0.8,0.4,1.6-0.1,2.3-0.1c1.5-0.2,3-0.5,4.6-0.6
		c0.3,0,0.6,0.2,0.8,0.2c0.9,0.4,1.7,0.9,2.2,1.7c0.6,1,1.7,1.7,1.5,3.1c-0.1,0.6-0.3,1.2-0.5,1.8c-0.1,0.4-0.3,0.8-0.8,0.7
		c-0.5-0.5-1-0.5-1.7-0.5c-3.1,0.4-5.9,1.5-8.7,2.6c-0.4,0.2-0.8,0.5-1.3,0.2c0-5.5,0-11,0-16.4c0-0.7,0.2-0.8,0.9-0.8
		C21.7,48,30.6,48,39.4,48z"/>
	<path class="st3" d="M12,65.3c2.7-1.2,5.5-2.3,8.5-2.9c0.8-0.2,1.6-0.3,2.4-0.4c0.7-0.1,0.9,0.4,0.9,0.9c-0.2,1.6-1.2,2.6-2.6,3.3
		c-0.5,0.2-1,0.3-1.5,0.4c-0.5,0-0.9,0-1.4,0.2c-0.4,0.2-0.8,0.3-1.2-0.1c-0.9-0.6-1.9,0-2.8,0.1C13.5,67,12.7,67,12,67
		C12,66.5,12,65.9,12,65.3z"/>
	<path class="st4" d="M118.3,74.3c-0.2-0.5,0-0.7,0.6-0.7c0.5,0.1,0.9,0.2,1.2,0.7C119.5,74.3,118.9,74.3,118.3,74.3z"/>
	<path class="st6" d="M21.3,56c-0.3,0.1-0.4-0.1-0.6-0.2c-0.1-0.1-0.2-0.1-0.2-0.2c-0.4-2.3,0.4-3.9,2.2-4.3
		c0.9-0.2,1.9-0.3,2.9-0.1c0.2,0,0.4,0,0.6,0c0.2,0.3,0.7,0.1,0.7,0.6c-0.1,0.1-0.2,0.2-0.4,0.2c-0.3,0.2-1.2-0.7-0.9,0.5
		c0.2,0.8,0.7,1.4,0.8,2.3c0.1,0.7,0.3,1.4-0.3,2c-0.3,0.3-0.2,0.8,0.2,0.9c0.6,0.2,0.4,0.5,0.3,0.9c-0.3,0.5-0.4,0.9-0.1,1.5
		c0.5,1.1,0.1,2.3-0.3,3.3c-0.1,0.4-0.5,0.9-1.2,0.8c-0.1,0-0.2-0.1-0.3-0.2c-0.3-0.4-0.3-0.8-0.1-1.3c0.2-0.5,0.2-1,0.3-1.6
		c0.4-1,0.1-1.8-0.6-2.6c-0.1-0.4,0.4-1-0.5-1.2c-0.4-0.1,0-0.6,0.3-0.9c0.4-0.5,0.9-0.8-0.1-1.4c-1.2-0.8-1.6-0.7-2.5,0.7
		C21.4,55.8,21.3,55.9,21.3,56z"/>
	<path class="st7" d="M75.6,56.8c1.7,0,3.4,0,5,0c0.4,0.2,0.8,0.1,1.2,0.1c6.1,0,12.2,0,18.3,0c0.4,0,0.8-0.2,1.1,0.2
		c-0.2,0.6-0.8,0.4-1.2,0.5c-1.1,0.1-2.3-0.1-3.4,0.2c-0.6,0.2-1.1,0.1-1.7,0c-1.5-0.1-3-0.3-4.5,0.1c-3,0.3-6,0-8.9,0.1
		c-2.9,0-5.8,0.1-8.7-0.1c-0.6-0.2-1.3-0.2-2-0.2c-6.9,0-13.9,0-20.8,0c-0.6,0-1.2,0-1.8,0c-0.6-0.3-1.4,0.1-1.8-0.6
		c0.2-0.4,0.5-0.2,0.8-0.2c9.2,0,18.5,0,27.7,0C75.2,56.8,75.4,56.8,75.6,56.8z"/>
	<path class="st8" d="M114.5,52.4c0.2-0.2,0.4-0.3,0.6-0.2c0.2-0.1,0.4-0.1,0.5-0.1c0.4,0.1,0.9-0.5,1.1,0.2
		c0.2,0.6,0.2,1.2-0.4,1.6c-0.6,0.4-0.8,0.7-0.4,1.3c0.2,0.3,0.2,0.7,0.1,1c-0.5,1.1,0.3,2.2-0.1,3.3c-0.1,0.2,0.2,0.3,0.4,0.3
		c0.5,0.2,0.4,0.6,0.3,1c-0.1,0.4,0,0.7,0.5,0.7c0.4,0,0.7,0.2,0.7,0.6c0.1,0.7,0.4,1.3,0.9,1.9c0.1,0.1,0.2,0.2,0.2,0.4
		c0,0.4-1.6,1.9-2,1.8c-0.9-0.3-1.9-0.1-2.8-0.6c-0.4-0.2-0.7-0.3-0.6-0.8c0.5-0.5,1-0.2,1.6-0.1c0.5,0.1,0.7-0.2,0.4-0.5
		c-1.4-1.6-1.1-3.6-1.5-5.4c-0.5-1.9-0.4-3.8,0.7-5.6C114.9,52.9,114.6,52.7,114.5,52.4z"/>
	<path class="st9" d="M114.5,52.4c0.7,0.1,1,0.3,0.5,0.9c-0.7,0.8-0.6,1.8-0.9,2.8c-0.1,0.5,0.4,0.8,0.5,1.2
		c-0.2,0.3-0.5-0.1-0.7,0.1c0,0.1-0.1,0.1,0,0.2c0.2,0.3,0.3,0.6,0.4,1c0.2,1.6,0.8,3.1,0.9,4.7c0,0.4,0.7,0.3,0.7,0.7
		c0,0.3,0.7,0.5,0.1,0.9c-0.3,0.3-0.5,0.6-1,0.2c-0.3-0.3-0.9-0.2-1.4-0.2c-0.2,0.1-0.4,0-0.6-0.2c-0.4-0.7-1.2-1.2-1-2.2
		c0.7-0.7,0.1-1.6,0.3-2.3c0.4-0.6,0.4-1.4,0.5-2.1c0.2-1.7,0.1-3.5,0.8-5.2C113.8,52.6,114.1,52.4,114.5,52.4z"/>
	<path class="st10" d="M75.6,56.8c-3.5,0.2-7,0-10.5,0.1c-6.1,0-12.2,0-18.6,0c0.7,0.3,1.3,0,1.8,0.4c-0.2,0.5-0.7,0.4-1.1,0.4
		c-2.7,0-5.4,0.1-8.1,0c-2.1-0.1-4.2-0.3-6.3-0.2c-0.2,0-0.5,0-0.6-0.2c-0.3-0.6-0.6-1.3-0.8-1.9c-0.1-0.3,0.1-0.6,0.5-0.4l0,0
		c1,0.4,2,0.9,3.1,1.1c5.1,1.2,10.3,0.6,15.5,0.7c8.1,0,16.3,0,24.4,0.1C75.3,56.7,75.5,56.8,75.6,56.8z"/>
	<path class="st11" d="M32.1,54.9c-0.2,0.1-0.5,0.1-0.3,0.3c0.4,0.6,1,1,0.7,1.8c0,0.1,0.2,0.1,0.4,0.1c4.8-0.2,9.6,0.4,14.4,0.1
		c0.4,0,0.7,0,1.1,0c7.8,0,15.7,0.1,23.5,0.1c0.4,0,0.7-0.1,1.1,0.2c-0.4,0.4-0.9,0.4-1.4,0.4c-11,0-22.1,0-33.1,0
		c-1.8,0-3.7,0-5.5,0.1c-0.3,0.2-0.6,0.2-0.9,0.1c-0.2,0-0.3,0-0.5-0.1c-0.5-1.2-1.2-2.3-1.3-3.6c0.2-0.3,0.3-0.6,0.8-0.3
		C31.3,54.4,31.7,54.6,32.1,54.9z"/>
	<path class="st12" d="M101.2,57.3c-0.4-0.3-0.9-0.2-1.3-0.2c-6,0-12,0-18,0c-0.4,0-0.9,0.1-1.3-0.2c5.1,0,10.2,0,15.2,0
		c3,0,6,0.1,9-0.3c1.6-0.1,3-0.9,4.5-1.4c0.1-0.1,0.2-0.1,0.3-0.1c0.6,0.4,0.7,1.1,0.6,1.6c-0.2,0.6-0.8,0.5-1.3,0.4
		c-0.4-0.1-0.8,0-1.2,0.1c-1.3,0.4-2.6,0.4-3.9,0.3c-0.8-0.2-1.6-0.1-2.3-0.1C101.4,57.4,101.3,57.4,101.2,57.3z"/>
	<path class="st13" d="M112.5,60.2c-0.1,0.7,0.4,1.3,0.1,2c-0.1,0.3-0.2,0.3-0.5,0.2c-0.7-0.2-0.8-0.8-0.9-1.4
		c-0.3-1.1-0.5-2.1-0.6-3.2c-0.1-0.7,0.1-1.3,0.2-2c0.1-0.7,0.3-1.4,1-1.8c0.3-0.2,0.6-0.4,0.9-0.7c0.5-0.2,0.5,0,0.4,0.4
		C112.8,55.9,112.5,58,112.5,60.2z"/>
	<path class="st14" d="M116.3,60c0,0.3-0.2,0.5-0.5,0.4c-0.3-0.1-0.2-0.3-0.2-0.4c0-0.9,0.5-1.9-0.2-2.8c-0.2-0.2,0.2-0.4,0.3-0.6
		c0.2-0.5,0.4-0.8-0.2-1.3c-0.4-0.4-0.2-1.2,0.2-1.3c0.8-0.2,0.9-0.7,0.8-1.3c-0.1-0.8-0.8-0.2-1.1-0.4c-0.1,0-0.2,0-0.3,0
		c0.5-0.3,1.1-0.3,1.6-0.4c0.6-0.2,1.2-0.1,1.7-0.1c0.8,0.5,0.2,0.9-0.2,1.1c-0.4,0.2-0.7,0.4-0.4,0.9c0.3,0.7-0.8,0.6-0.6,1.2
		c0.3,0.9,0.4,1.7-0.4,2.5c-0.2,0.2-0.1,0.6-0.1,0.9C116.5,58.8,116.8,59.5,116.3,60z"/>
	<path class="st15" d="M115.8,67c-0.2-0.1-0.4-0.3-0.7-0.4c-0.2-0.1-0.4-0.2-0.2-0.5c0.3-0.1,0.7-0.1,0.9,0c0.9,0.7,1.8,0.1,2.6,0.2
		c0.2,0,0.4-0.1,0.5-0.2c0.1-0.9,1-1.2,1.3-2c0.2-0.1,0.4-0.2,0.6-0.1c0.5,0.2,1,0.3,1.5,0.5c0.8,0.5,0.5,1,0,1.5
		c-0.1,0.1-0.2,0.1-0.3,0.2c-0.8-0.2-1,0.5-1.6,0.8c-1.2,0.5-2.4,1.2-3.7,0.8C116.5,67.6,116.2,67.3,115.8,67z"/>
	<path class="st16" d="M118.3,56c-0.9,2.6-0.6,4.9,1.5,6.8c-0.9,0.3-1.3-0.5-1.9-0.8c-0.2-0.3-0.4-0.6-0.4-1c-0.1-1-0.1-2-0.4-3
		c-0.1-0.3-0.1-0.5,0-0.7c0.5-0.9,0.5-1.9,0.8-2.8c0.5-1,1.2-1.7,1.6-2.8c0.7,0,1.4,0.3,2.1,0.3l0,0c0.3,0.2,0.6,0.5,0.1,0.7
		c-0.9,0.4-1.5,1.2-2.4,1.7C118.7,54.8,118.5,55.4,118.3,56z"/>
	<path class="st17" d="M127.8,65.9c-1.3,0.9-2.5,2-4.2,2.2c-0.1-0.5,0.3-0.7,0.6-0.9c0.9-0.4,1.5-1.1,1.9-2c0.2-0.5,0.8-0.6,0.9-1.2
		c0.1-0.3,0.3-0.6,0.5-0.8c0.5,0,1-0.2,1.3,0.2c0.3,0.4-0.1,0.9-0.4,1.2c-0.1,0.2-0.2,0.4-0.2,0.7C128.1,65.6,127.9,65.8,127.8,65.9
		z"/>
	<path class="st18" d="M30.2,54.4c0.7,1.1,1.1,2.4,1.5,3.6c0.7,0.6,0.2,1.4,0.5,2.1c-0.3,1.3,0.2,2.7-0.9,3.9
		c-0.7,0-0.6-0.5-0.6-0.9c0.2-1.5,0.1-3,0-4.6c-0.1-1-0.2-1.9-0.8-2.7c-0.3-0.8-0.9-1.3-1.3-2.1c-0.1-0.3-0.5-0.7,0.3-0.6
		C29.4,53.5,29.8,54,30.2,54.4z"/>
	<path class="st19" d="M112.5,60.2c-0.3-0.9-0.6-1.7-0.1-2.8c0.3-0.7,0.5-1.6,0-2.4c-0.2-0.5,0.1-0.8,0.4-1.2
		c0.1-0.2,0.5-0.4-0.1-0.5c0.2-0.3,0.5-0.4,0.8-0.5c0.1,0,0.1,0,0.2,0.1c-0.8,1.3,0.1,2.8-0.7,4.1c-0.2,0.3,0,0.8,0,1.2
		C113.1,58.9,112.9,59.7,112.5,60.2z"/>
	<path class="st20" d="M29,53.1c-0.5,0.4,0.1,0.7,0.2,0.9c0.4,0.5,0.7,1,0.9,1.5c0.2,0.4,0.2,0.8,0.4,1.2c0.1,0.3,0.2,0.7-0.3,0.9
		c-0.8-0.3-1.3-0.7-1.3-1.7c0-1.1-1-1.7-1.2-2.6c-0.1-0.3-0.4-0.6-0.5-1c-0.1-0.2-0.2-0.5,0.3-0.4C28.2,52.1,28.6,52.5,29,53.1z"/>
	<path class="st21" d="M122.3,65.7c0.5-0.4,0.5-0.8,0.2-1.3c0.8-0.2,1.6-0.3,2.4-0.5c1,0.2,1,0.3,0.5,1.3c-0.1,0.1-0.2,0.1-0.3,0.2
		c-0.4,0.1-0.9,0.2-1.3,0.4C123.3,66,122.8,66.2,122.3,65.7z"/>
	<path class="st22" d="M118.3,56c-0.1-1.3,1-2,1.8-2.6c0.5-0.3,0.7-1.4,1.7-1.1c0-0.1-0.1-0.3-0.1-0.4c0.1,0,0.3,0,0.4,0
		c0.6,0.2,0.6,0.6,0.3,1c-0.4,0.6-1,1.1-1.6,1.4C119.4,54.3,118.9,55.2,118.3,56z"/>
	<path class="st23" d="M120.7,54.4c0.3-0.5,0.7-0.9,1.2-1.3c0.4-0.3,0.7-0.7,0.2-1.2c0.3,0,0.6,0,0.9,0c0.3,0.5,1.2,0.9,0.7,1.7
		C122.6,53.7,121.7,54.6,120.7,54.4z"/>
	<path class="st24" d="M111.9,54c-0.1,0.6-0.8,1-0.7,1.7c-0.5-0.1-0.9-0.9-1.5-0.4l0,0c-0.9,0.2-1.7,0.9-2.7,0.7
		c0.1-0.3,0.4-0.4,0.7-0.4c1.1-0.3,2.2-0.7,3.2-1.4C111.2,53.9,111.5,53.7,111.9,54z"/>
	<path class="st25" d="M125.1,65.2c0.2-0.5,0.9-1.1-0.2-1.4c0.9-0.2,1.8-0.4,2.7-0.6c-0.1,0.3-0.1,0.6-0.2,0.8
		c-0.4,0.5-1.1,0.6-1.5,1.1C125.7,65.5,125.4,65.5,125.1,65.2z"/>
	<path class="st26" d="M118,61.9c0.7,0.1,1,0.8,1.8,0.9c0.4,0.3,0.9,0.6,1.1,1.1c-0.2,0.1-0.3,0.2-0.5,0.2c-0.7-0.3-1.5-0.5-2-1
		C118.1,62.8,117.7,62.5,118,61.9z"/>
	<path class="st27" d="M123.6,53.8c0.1-0.7-0.6-1.1-0.7-1.7c0.4,0.2,0.7,0.3,1.1,0.5c0.3,0.2,0.7,0.4,0.6,0.8
		C124.5,53.9,123.9,53.7,123.6,53.8z"/>
	<path class="st28" d="M27.5,52c-0.2,0.5,0.6,0.8,0.4,1.3c0.1,0.3-0.2,0.3-0.4,0.3c-0.5-0.3-0.7-0.9-1.3-1.1
		c-0.4-0.2-0.3-0.5,0.1-0.7c0.2,0,0.3,0,0.5,0C27.1,51.8,27.4,51.7,27.5,52z"/>
	<path class="st29" d="M107,56c0.9,0,1.7-0.6,2.7-0.7c-1.5,0.8-3,1.3-4.7,1.3C105.6,56.4,106.3,56.2,107,56z"/>
	<path class="st22" d="M121.6,52c-0.8,0.3-1.5-0.2-2.2-0.2c-0.2,0.2-0.4,0.2-0.7,0c-0.7,0-1.3,0-2,0C118.4,51.4,120,51.4,121.6,52z"
		/>
	<path class="st11" d="M35.2,56c-1.2,0-2.2-0.4-3.1-1.1C33.2,55.1,34.2,55.5,35.2,56z"/>
	<path class="st30" d="M103.9,63.7c-1,0-1.9,0-2.9,0c-1.1-0.2-2.2-0.2-3.3,0l-0.1,0l-0.1,0c-1.1-0.3-2.2,0.1-3.3-0.2
		c-0.2,0-0.4,0-0.6,0c-1.3,0.2-2.7-0.1-4,0.2c-0.1,0-0.1,0-0.2,0c-1.7-0.1-3.4-0.2-5.1,0c-0.7,0-1.3,0-2,0c-0.8-0.2-1.7-0.1-2.5-0.1
		c-3.2-0.1-6.5,0.1-9.7-0.1c-0.6,0-1.2,0-1.8,0c-1.6,0.1-3.1,0.1-4.7,0c-3.3,0-6.6,0-10,0c-4,0-8,0-12,0c-2,0-4,0.3-5.9,0.9
		c-1.5,0.5-3,1-4.3,2.1c-0.6,0.5-0.7,0.2-0.7-0.5c-0.4,0.3-0.8,0.5-1.1,0.7c-0.3-0.6,0.3-0.9,0.5-1.2c0.3-0.3,0.5-0.7,0.9-0.8
		c0.2,0,0.3,0.1,0.4,0.2c0.2,0.3,0.4,0.2,0.7,0.1c2.2-1.2,4.7-1.7,7.1-2.1c2.4-0.2,4.8-0.3,7.2-0.3c3,0,6.1,0,9.1,0
		c2.2,0,4.4,0,6.6,0c0.7,0.3,1.4,0.1,2.2,0.1c1,0.3,2.1,0.1,3.1,0c0.1,0,0.3,0,0.4,0.1c1.5,0.1,3,0,4.5,0c7.8,0,15.6,0,23.4,0
		c2.7,0,5.5,0,8.2,0c0.2,0,0.4,0,0.6,0c0.8,0.3,1.6,0.3,2.4,0.3c1.1,0.1,2.1,0.5,3.2,0.8c0.6,0.4,1.5,0.2,1.6,1.2
		c-0.3,0.1-0.6,0.1-0.9,0c-1.6-0.4-3.3-0.9-4.9-1.3C105.4,63.6,104.6,64,103.9,63.7z"/>
	<path class="st28" d="M29.5,66.8c-0.5,0.5-1,1-1.7,1.1c-0.8,0.3-1.4-0.5-2.2-0.4c-0.2,0-0.5-0.5-0.4-0.8c0.4-1,0.7-2,0.7-3.1
		c0-0.2,0.2-0.5,0.3-0.7c1.1-1.2,0.8-2.5,0.4-3.8c-0.1-0.3-0.1-0.6,0-1c0.2-0.6,0-1.3,0.8-1.7c0.4-0.2,0.2-0.9,0.2-1.5
		c-0.1,0.4,0.1,0.7-0.2,0.8c-0.3,0.1-0.4-0.2-0.4-0.4c-0.1-0.5-0.1-0.9,0.1-1.4c0.1-0.1,0.2-0.1,0.3-0.2c0.9,0.2,1.4,0.7,1.5,1.6
		c0.1,0.7,0,1.5-0.2,2.2c-0.2,0.6-0.4,1.3,0.2,1.9c0.2,0.3,0,0.6-0.1,0.9c-0.7,1.3-0.2,2.7-0.3,4.1c0,0.1,0,0.1,0.1,0.2
		c0.5,0.7,0.5,0.7-0.2,1.3C28.4,66.9,29.1,66.5,29.5,66.8z"/>
	<path class="st31" d="M29.5,66.8c-0.9,0.5-1.3-0.2-1.9-0.7c0.5-0.3,1.1-0.3,1.3-0.8c-0.4-0.5-0.6,0.2-1,0.1
		c0.5-0.6,0.3-1.3,0.2-1.9c-0.2-0.9-0.1-1.7,0.2-2.5c0.2-0.5,0.6-1-0.1-1.7c-0.5-0.5,0.2-1.5,0.4-2.2c0.3-1.4,0.1-2.1-1-2.8
		c-0.2-0.2-0.2-0.4,0-0.7c0.1-0.1,0.3-0.2,0.4-0.2c0.5,0.9,1.5,1.6,1.3,2.8c-0.1,0.7,0.7,0.8,0.9,1.4c0,0.1,0,0.1,0,0.2
		c-0.8,1.5,0,3.1-0.3,4.6c0,0.1,0,0.2,0.1,0.3c0.9,0.9,0.5,2.1,0.5,3.1c-0.2,0.4-0.5,0.7-0.7,1.1C29.6,66.8,29.5,66.8,29.5,66.8z"/>
	<path class="st32" d="M26.8,58.4c0.5,0.6,0.1,1.5,0.8,2.1c0.1,0.1,0,0.4,0,0.6c0,0.1-0.3,0.2-0.3,0.3c0.6,1.2-1,1.6-1,2.5
		c0,1.1-0.2,2.1-0.7,3c-0.1,0.3,0,0.8,0.6,0.4c0.2-0.1,0.9-0.4,1,0.4c0,0.3,0.4,0.2,0.7,0.3c-0.6,0.5-1.3,0.7-2,0.9
		c-0.3,0.1-0.6,0-1,0c-0.6,0-0.9-0.3-0.7-0.9c0-0.2,0-0.3-0.1-0.4c-0.6-0.5-0.7-1,0-1.5c0.3-0.2,0.2-0.5,0.3-0.8
		c0.4-0.4,0.2-0.9,0.6-1.3c1-0.3,1.6-1.6,1.1-2.4c-0.1-0.2-0.2-0.3,0-0.5c0.2-0.2,0.4,0.1,0.6,0.1c-0.2-0.9-1.6-1.7-0.1-2.7
		C26.5,58.3,26.6,58.3,26.8,58.4z"/>
	<path class="st33" d="M25,61.1c0,0.6,0.1,1.2-0.2,1.8c-0.6,0.6-0.5,1.7-1.2,2.3c-0.1,0.1-0.3,0-0.4,0.2c-0.5,1.4-0.5,1.4-1.9,1.4
		c0.2,1.2,1,1.7,2.1,1.9c0.4,0.1,0.7,0.2,0.8,0.6c-0.4,0.3-0.8,0.1-1.2,0.2c-1,0.4-1.9-0.3-2.9-0.1c-0.2-0.1-0.3-0.1-0.4-0.3
		c-0.4-0.5,0.1-0.8,0.2-1.2c-0.7,0-0.6-0.5-0.6-1c0.1-0.2,0.3-0.3,0.5-0.4c2.1-0.3,3.2-1.8,4-3.5c0.8-0.7,0.6-1.7,1-2.6
		C25.1,60.5,24.8,60.9,25,61.1z"/>
	<path class="st34" d="M24.2,69.3C23.8,69,23.4,69,23,69c-1.1-0.2-1.7-1.1-2.2-1.9c-0.3-0.5,0.5-0.9,0.8-0.8c1.2,0.6,1.2-0.4,1.5-1
		c0.1-0.3,0.3-0.2,0.5-0.2c0.3-0.2,0.4-0.4,0.5-0.7c0.1-0.4,0.4-0.6,0.8-0.4c0,0,0.1,0,0.1,0c0,0.5,0.3,1.1-0.5,1.3
		c-0.1,0.4-0.3,0.7-0.5,0.9C23,67,23,67.1,24,67.7c0.1,0.1,0.2,0.2,0.3,0.3c0,0.2-0.4,0.4,0.1,0.5c0.4,0.1,0.8,0.2,1.2,0.4
		C25.3,69.2,24.7,69.1,24.2,69.3z"/>
	<path class="st35" d="M125.1,65.2c0.9-0.1,1.2-1.2,2.2-1.1c-0.9,1-1.3,2.3-2.4,3c-0.5,0.3-1.1,0.5-1.4,1c-2.3,0.6-4.6,0.8-6.9-0.3
		c-0.4-0.2-0.7-0.4-0.9-0.8c0.4,0.2,0.7,0.3,1.1,0.5c1.1,0.6,2.3-0.1,3.4,0.3c1.5,0.1,2.5-0.6,3.4-1.8c0-0.1,0.1-0.2,0.2-0.2
		C124.3,65.6,124.8,65.7,125.1,65.2L125.1,65.2z"/>
	<path class="st36" d="M19.7,66.4c-0.1,0.1-0.2,0.3-0.2,0.4c-0.1,0.1-0.1,0.1-0.2,0.2c-0.3,0.1-0.3,0.3-0.2,0.5
		c0.1,0.6,0.2,1.2,0.2,1.8c-1.3,0.1-2.6-0.4-3.8-0.8c-0.2-0.1-0.6-0.1-0.6-0.4c0-0.4,0.3-0.5,0.6-0.6c0.5-0.2,1.1-0.4,1.6-0.6
		C18,66.9,18.8,66.1,19.7,66.4z"/>
	<path class="st37" d="M111,65.3c0.3,0,0.6,0,0.9,0c0.3-0.2,0.7-0.3,0.7-0.7c0.2-0.4,0.4-0.1,0.6,0c0.1,0.1,0.3,0.2,0.4,0.2
		c0,0.4,0.4,0.5,0.7,0.7c0.3,0.2,0.7,0.2,0.6,0.7c0.1,0.1,0.2,0.3,0.3,0.4C113.7,66.3,112.3,65.9,111,65.3z"/>
	<path class="st37" d="M70,63.5c3.8,0,7.6,0,11.4,0c0.3,0,0.6,0,0.8,0.2c-3.7,0-7.4,0-11.1,0C70.7,63.7,70.3,63.8,70,63.5z"/>
	<path class="st38" d="M19.3,69.2c-0.8-0.4-0.2-1.2-0.5-1.7c0-0.3,0.1-0.6,0.5-0.7c0.1,0,0.1,0,0.2,0c-0.1,0.6,0.1,1,0.9,0.8
		c-0.2,0.6-0.9,1-0.2,1.6c-0.2,0.2-0.5,0.2-0.7,0C19.4,69.3,19.3,69.3,19.3,69.2z"/>
	<path class="st37" d="M84.2,63.7c1.7-0.3,3.4-0.3,5.1,0C87.6,63.7,85.9,63.7,84.2,63.7z"/>
	<path class="st37" d="M63.6,63.5c1.6,0,3.1,0,4.7,0C66.7,63.8,65.1,63.9,63.6,63.5z"/>
	<path class="st36" d="M19.5,69.3c0.2,0,0.5,0,0.7,0c1-0.2,1.9,0.3,2.9,0.2C21.8,70,20.7,69.5,19.5,69.3z"/>
	<path class="st37" d="M89.5,63.7c1.3-0.4,2.7-0.1,4-0.2C92.2,63.9,90.8,63.6,89.5,63.7z"/>
	<path class="st37" d="M94.1,63.5c1.1,0.1,2.2-0.2,3.3,0.2C96.3,63.6,95.2,63.9,94.1,63.5z"/>
	<path class="st37" d="M97.7,63.7c1.1-0.3,2.2-0.3,3.3,0C99.9,63.7,98.8,63.7,97.7,63.7z"/>
	<path class="st37" d="M103.9,63.7c0.7,0.1,1.5-0.2,2.2,0.2C105.3,63.9,104.6,64.2,103.9,63.7z"/>
	<path class="st39" d="M21.3,56c0.1-1.3,0.8-2,2-1.7c0.1,0,0.3,0.1,0.3,0c-0.1-0.7,0.3-0.7,0.7-0.4c0.5,0.4-0.3,0.5-0.3,0.9
		c0.3,0.3,1.1-0.1,1.1,0.6c0,0.8-0.6,1.3-1.3,1.7c0.5,0.3,0.9-0.1,1.2,0.2c-0.2,0.4-0.4,0.8-0.5,1.2c-0.6-0.1-0.6-0.8-1.1-0.9
		C22.7,56.8,22,56.4,21.3,56z"/>
	<path class="st40" d="M17.3,53.1c0.9-0.8,2-1.2,3.1-1.5c0.2,0.8-0.6,1.4-0.3,2.2c0.3,0.7,0,1.2-0.4,1.7c-0.8,0.3-1.7,0.8-2.4,0.1
		C16.6,54.9,17.1,53.9,17.3,53.1z"/>
	<path class="st41" d="M17.3,53.1c0,0.6,0.4,1.2,0,1.9c-0.2,0.3,0.4,0.8,1,0.7c0.5-0.1,1-0.2,1.5-0.4c0.3-0.1,0.7-0.2,0.9,0.2
		c0,0.1,0,0.1,0,0.2c-1.6,0.2-3.3,0.5-4.9,0.7c-0.4-0.5-1.4-0.8-0.7-1.8C15.6,53.9,16.5,53.5,17.3,53.1z"/>
	<path class="st42" d="M20.6,55.6c-0.2-0.3-0.7,0.1-0.9-0.2c0.2-1.3-0.3-2.6,0.7-3.8c1.6-0.7,3.3-0.9,5.1-0.5
		c-1-0.1-1.9,0.1-2.8,0.3c-1.2,0.2-2.2,1.9-2,3.2C20.7,54.9,20.6,55.2,20.6,55.6z"/>
	<path class="st43" d="M15.1,54.6c-0.1,0.7,0.5,1.2,0.7,1.8c-0.5,0.1-0.9,0.2-1.4,0.2c-0.4,0-0.9,0-1.4,0
		C13.4,55.6,14.2,55,15.1,54.6z"/>
	<path class="st44" d="M23.2,57.5c0.7-0.1,0.8,0.5,1.1,0.9c0.7,0.8,1.1,1.6,0.7,2.7c-0.2-0.2-0.2-0.5-0.2-0.7
		C24.7,59.2,23.8,58.4,23.2,57.5z"/>
	<path class="st45" d="M26.8,58.4c-0.1,0-0.3,0-0.4,0c0.2-0.7-0.6-0.6-0.8-1.1c-0.1-0.4-0.7-0.7,0.2-0.9c0.2,0,0.4-0.4,0.4-0.5
		c-0.2-1,0.1-2.1-0.8-2.8c-0.2-0.1-0.2-0.2,0.1-0.7c1,0.1,1.7,0.8,1.8,1.8c0,0.5,0,1,0,1.5c0.1,0,0.1,0,0.2,0c0-0.3,0.1-0.7,0.1-1
		c0,0,0.1,0,0.1,0c0.1,0.5,0.1,1.1,0.3,1.6c0.1,0.3,0,0.6-0.2,0.6C26.8,57.1,27,57.9,26.8,58.4z"/>
	<path class="st46" d="M27.3,54.2c-0.4-0.8-1-1.4-1.8-1.8c-0.2-0.2-0.7-0.2-0.4-0.7c0.4-0.5,0.9-0.4,1.3,0c-0.1,0.2-0.3,0.5,0,0.5
		c0.9,0,0.9,0.6,1.1,1.2c0,0.2,0,0.4,0,0.7C27.4,54.2,27.3,54.2,27.3,54.2z"/>
	<path class="st44" d="M24.8,64c-0.7,0.1-0.5,1.2-1.3,1.1c0.4-0.7,0.3-1.8,1.3-2.2C24.6,63.2,24.9,63.6,24.8,64z"/>
	<path class="st47" d="M32.6,57.9c-0.2-0.3-0.1-0.4,0.3-0.4c3-0.2,6,0,9,0c10,0,20,0.1,30.1,0.1c0.3,0,0.6-0.1,0.9-0.1
		c6,0,12,0,17.9,0c1.4-0.1,2.8,0,4.2,0c0.4,0,0.9,0.3,1.3,0c1.3-0.3,2.7,0.1,4,0c2.4-0.3,4.8,0.1,7.3-0.2c0.5-0.1,1,0,1.5,0.1
		c0.4,0.1,0.9,0.1,1,0.6c0.1,0.4-0.3,0.6-0.7,0.8c-0.8,0.4-1.7,0.5-2.7,0.5c-2.6,0-5.2,0-7.8-0.1c-0.4,0-0.9,0-1.3,0.1
		c-3.2,0-6.3,0.1-9.5-0.1c-0.6-0.2-1.3-0.2-2-0.2c-4.9,0-9.8,0-14.7,0c-3,0-5.9,0-8.9,0c-1.1,0-2.1,0.1-3.2,0
		c-2.6-0.1-5.2,0.2-7.8,0.1c-1.1,0-2.1,0-3.2-0.1c-1.7,0.2-3.5,0.1-5.2,0.1c-1.5,0-3.1,0.1-4.6-0.1c-0.3,0-0.5,0-0.8,0
		c-0.9-0.1-1.8,0.2-2.7,0C34.1,58.8,33.1,58.8,32.6,57.9z"/>
	<path class="st29" d="M109.6,58.4c0.1-0.2,0.4-0.2,0.4-0.5c-0.1-0.3-0.4-0.2-0.7-0.2c-2.4,0-4.8,0-7.1,0c-1.9,0-3.9,0.1-5.8-0.1
		c1-0.4,2-0.1,3-0.2c0.6,0,1.2,0,1.9,0c0.1,0,0.2,0,0.2,0c0.8-0.2,1.6-0.2,2.4,0c1.5-0.1,3.1-0.1,4.6-0.6c0.1,0,0.3,0,0.4,0
		c1,0.2,1.1,0.2,0.8-0.7c-0.1-0.3,0.6-0.6-0.1-0.8c0.3-0.4,0.8-0.5,1.2-0.6c0.4,0.3-0.1,0.8,0.3,1c-0.1,0.7-0.1,1.3-0.2,2
		c-0.6,0.6,0.3,1.3-0.1,2C109.7,59.8,109.4,59.5,109.6,58.4z"/>
	<path class="st29" d="M95,57.5c-1.4,0.3-2.8,0.2-4.2,0C92.2,57.2,93.6,57.3,95,57.5z"/>
	<path class="st48" d="M114.9,66.2c-0.3-0.1-0.5-0.4-0.6-0.7c0.8,0.6,1.9-0.1,2.7,0.5c0.4,0.3,0.7-0.4,0.8-0.8c0-0.1-0.2-0.3,0-0.4
		c0.3-0.1,0.5-0.7,0.3-0.9c-0.3-0.5-0.7-1-0.6-1.7c0-0.1,0.1-0.4-0.1-0.3c-0.5,0.2-0.9,0-1.2-0.3c-0.3-0.4,0-0.9,0.2-1.3
		c0-0.1-0.1-0.2-0.2-0.4c0-0.7,0-1.4,0.2-2c0.6,0,0.5,0.4,0.6,0.7c0.2,0.8,0.2,1.6,0.5,2.3c0.1,0.3,0.3,0.6,0.4,0.9
		c0.1,0.9,0.8,1.2,1.4,1.4c0.5,0.2,0.8,0.4,1,0.8c-0.4,0.4-0.2,1.2-1,1.2c-0.1,0-0.2,0.2-0.2,0.3c0.6,1.2-0.7,0.9-1.1,1
		c-1,0.2-2.1,0.3-2.9-0.5C115.2,66.2,115,66.2,114.9,66.2z"/>
	<path class="st49" d="M110.7,59.7c0.2-0.6-0.6-1.4,0.3-2c0.1,1.6,0.4,3.2,1.1,4.6c0.1,0.9,0.8,1.4,1.1,2.2c-0.2,0-0.3-0.2-0.5,0
		c-0.3,0.1-0.5-0.1-0.6-0.3c-0.3-0.5-0.3-1.2-0.8-1.7C110.9,61.7,110.4,60.8,110.7,59.7z"/>
	<path class="st12" d="M32.6,57.9c0.7,0.2,1.4,0.5,2.2,0.7c1,1.1,0.6,2.2,0.3,3.4c-0.6,0.3-1.4,0.3-2,0.5c-0.4,0.1-1,0.8-1.1-0.3
		c-0.1-0.8,0.2-1.5,0.1-2.2c0-0.7-0.3-1.5-0.1-2.2C32.1,57.8,32.4,57.9,32.6,57.9z"/>
	<path class="st50" d="M31.9,57.8c0,0.7,0.4,1.4,0.2,2.2c-0.1,0.1-0.2,0.1-0.2,0c-0.1-0.7-0.2-1.3-0.2-2
		C31.7,57.9,31.8,57.8,31.9,57.8z"/>
	<path class="st7" d="M103.9,57.3c-0.8,0-1.6,0-2.4,0C102.3,57,103.1,57,103.9,57.3z"/>
	<path class="st26" d="M117.6,61.1c-0.7-0.6-0.6-1.5-0.8-2.3c-0.1-0.3-0.1-0.6-0.3-0.7c-0.3-0.4-0.4-0.8,0-1
		c0.7-0.5,1.1-0.9,0.2-1.6c-0.2-0.2,0-0.4,0.2-0.5c0.3-0.3,0.6-0.6,1.1-0.4c0.2,0.7,0,1.4-0.3,1.9c-0.7,1.4-0.1,2.8,0,4.2
		C117.7,60.7,117.7,60.9,117.6,61.1z"/>
	<path class="st51" d="M118,54.4c-0.3,0.4-0.7,0.5-1.1,0.4c0-0.5-0.3-1.2,0.6-0.9c0.1-0.5-0.8-0.4-0.5-0.8c0.2-0.2,0.2-0.8,0.9-0.6
		c0.4,0.1,0.5-0.4,0.7-0.7c0.2,0,0.4,0,0.7,0c0,0.5,0.6,1.2-0.5,1.5C118.6,53.4,118.6,54.2,118,54.4z"/>
	<path class="st52" d="M120.3,68.1c-1.1-0.3-2.4,0.3-3.3-0.6c1.3,0.1,2.4-0.4,3.6-0.9c0.6,0,1.1-0.5,1.7-0.4
		c0.1,0.1,0.2,0.1,0.2,0.2c0,0.4-0.3,0.6-0.6,0.7C121.2,67.4,120.8,67.8,120.3,68.1z"/>
	<path class="st21" d="M122.2,66.4c-0.6,0.1-1.1,0.6-1.7,0.3c0.3-0.4,0.7-0.6,1-1.1c0.5-0.9,0.3,0.6,0.8,0.4
		C122.4,66.1,122.4,66.2,122.2,66.4z"/>
	<path class="st52" d="M122.2,66.4c0-0.1,0-0.3,0-0.4c0-0.1,0-0.1,0-0.2c0.5,0,1,0,1.5,0c0.1,0,0.1,0.1,0.1,0.2c0,0.1,0,0.1-0.1,0.1
		l0,0C123.4,66.4,123,67.1,122.2,66.4L122.2,66.4z"/>
	<path class="st53" d="M30.1,57.5c0.4-0.2,0.3-0.5,0.1-0.8c-0.2-0.4-0.1-0.8-0.2-1.2c0.6,0.7,0.9,1.6,0.9,2.5c0.1,1.7,0.3,3.5,0,5.2
		c0,0.2,0,0.5,0.2,0.7c0.2,0.3,0,0.5-0.2,0.7c-0.9-0.3-0.5-1.1-0.6-1.7c-0.2-1.1-0.1-2.3-0.5-3.4C29.6,58.8,30.4,58.2,30.1,57.5
		L30.1,57.5z"/>
	<path class="st54" d="M31,64.6c0.1-0.2,0.2-0.4,0.2-0.7c0.6-1.3,0.5-2.6,0.7-4c0.1,0,0.2,0,0.2,0c0.2,0.8,0,1.6,0,2.4
		C32,63,32.3,63.6,32,64.2c-0.2,0.4-0.2,0.9-0.8,0.9c-0.1-0.1-0.2-0.2-0.2-0.3C31,64.8,30.9,64.7,31,64.6C30.9,64.6,31,64.6,31,64.6
		z"/>
	<path class="st55" d="M123.8,65.9c0-0.1,0-0.2,0-0.2c0.3-0.5,0.8-0.6,1.3-0.5C125.1,66.3,124.4,66.1,123.8,65.9z"/>
	<path class="st56" d="M67.5,63.1L67.5,63.1l-0.1,0c-0.5,0.1-1-0.2-1.5,0c-1.1-0.1-2.3,0-3.4-0.1c-2.3,0-4.5,0-6.8,0
		c-1.3,0-2.6,0-3.9,0c-0.2,0-0.2-0.1-0.2-0.3c0.6-0.8,1.5-0.5,2.3-0.5c1.4,0.3,2.8,0.3,4.2,0c0.3-0.1,0.7-0.1,1,0
		c0.4,0.1,0.7,0.1,1.1,0.1c5.8,0,11.6,0,17.4,0c2.8-0.3,5.6-0.3,8.3-0.1c1.3,0.1,2.5,0,3.8,0c1.8,0.1,3.5,0,5.3,0
		c0.4,0,0.9-0.1,1.3,0.2c0,0.8-0.7,0.4-1,0.6c-8.9,0-17.8,0-26.8,0C68.2,63.2,67.8,63.2,67.5,63.1z"/>
	<path class="st57" d="M31.3,65.1c0.6-0.8,0.4-1.9,0.8-2.7c0.4,0.7,0.4-0.5,0.7-0.2c0.2,0.1,0.3,0.2,0.4,0.4c0.2,0.4,0,0.8,0,1.3
		c0.1-0.6,0.4-0.9,0.9-1.1c0.5,0.3,0.9,0.4,1.5,0.2c1.1-0.2,2.3-0.4,3.4,0.1c0,0,0,0.1,0,0.1c-2.5,0.5-5,1.1-7.3,2.4
		C30.9,66.2,31.4,65.4,31.3,65.1z"/>
	<path class="st20" d="M31,64.6c0,0.1,0,0.2,0,0.2c-0.2,0.3-0.3,0.7-0.7,0.9c-0.6-0.3-0.4-0.8-0.2-1.2c0.2-0.5,0.2-0.9-0.2-1.2
		c-0.7-0.6-0.5-1.4-0.3-2.2c0.1-0.4-0.1-0.8-0.2-1.2c-0.3-1,0.1-1.7,0.7-2.5c0.3,0.5,0.9,0.9,0.1,1.4c-0.2,0.1-0.2,0.2-0.1,0.4
		c0.4,0.5,0.2,1.2,0.4,1.7C30.9,62.2,30.3,63.5,31,64.6z"/>
	<path class="st58" d="M67.5,63.1c5,0,10.1,0,15.1,0c4.3,0,8.6,0,12.8,0c0.1-0.1,0.3-0.1,0.4,0c0.1,0.1,0.1,0.2,0,0.3
		c-9.1,0-18.2,0-27.3,0C68.2,63.2,67.9,63.1,67.5,63.1z"/>
	<path class="st59" d="M111.6,62.6c0.4,0.4,0.5,1,0.7,1.6c0.2,0.7-0.5,0.8-0.6,0.6c-0.4-0.6-1-0.1-1.4-0.4c-1.8-0.5-3.7-0.8-5.6-1.1
		c0.3-0.5,0.8-0.4,1.2-0.4c0.8,0,1.7,0,2.5,0.1c0.6,0.1,0.6-0.1,0.4-0.5c0.6-0.4,1.2-0.1,1.8-0.2c0.9,0.2,0.3,0.6,0.1,0.9
		C111.2,63.3,111.3,62.8,111.6,62.6z"/>
	<path class="st58" d="M108.7,62.7c0.2,0.1,0.4,0.2,0.8,0.3c-1.6,0.7-3.2,0-4.8,0.3c-0.1,0-0.3,0-0.4,0c-0.3-0.3-0.8,0-1.2-0.2
		c-0.2-0.2-0.3-0.4-0.1-0.6c0.4-0.2,0.8-0.2,1.2-0.2c1.1,0,2.2,0,3.3,0C108,62.3,108.4,62.2,108.7,62.7z"/>
	<path class="st60" d="M51.6,62.8c1.3,0,2.6,0,4,0.1c0.1,0,0.1,0.1,0.1,0.1c0,0-0.1,0.1-0.1,0.1c-3.1,0-6.2,0-9.3,0
		c-0.1-0.1,0-0.3,0.1-0.4c0.6-0.3,1.2-0.1,1.8-0.2C49.3,62.6,50.5,62.2,51.6,62.8z"/>
	<path class="st59" d="M103.2,63c0.4,0.1,0.8-0.1,1.1,0.3c-2.8,0-5.6,0-8.4,0c0-0.1,0-0.1,0-0.2c0.5-0.3,1.1-0.3,1.7-0.3
		c1.4,0,2.9,0,4.3,0C102.4,62.7,102.8,62.8,103.2,63z"/>
	<path class="st57" d="M46.3,62.9c0,0.1,0,0.1,0,0.2c-2.4,0.1-4.9,0.2-7.3,0.2c0,0,0-0.1,0-0.1c0.1-0.5,0.5-0.5,0.8-0.5
		c1,0,1.9-0.3,2.9-0.4c0.9,0.2,1.7,0,2.6,0.1C45.7,62.6,46,62.5,46.3,62.9z"/>
	<path class="st61" d="M110.3,64.4c0.5-0.1,0.9-0.2,1.4-0.3c0.3,0.3-0.4,0.3-0.2,0.4c0.3,0.2,0.7,0.2,0.8-0.3
		c0.1,0.1,0.3,0.3,0.4,0.4c0.1,0.2,0.4,0.5,0.2,0.8c-0.3,0.3-0.7-0.2-1-0.1C111.4,64.8,110.7,64.8,110.3,64.4z"/>
	<path class="st58" d="M55.6,63.1c0-0.1,0-0.1,0-0.2c2.3,0,4.6,0,6.8,0c0.1,0.1,0.1,0.2,0,0.3C60.1,63.1,57.9,63.1,55.6,63.1z"/>
	<path class="st62" d="M62.4,63.2c0-0.1,0-0.2,0-0.3c1.2,0,2.4,0,3.6,0c-0.5,0.6-1.1,0.2-1.6,0.2C63.7,63.2,63.1,63.5,62.4,63.2z"/>
	<path class="st58" d="M64.4,63.1c0.5-0.2,1.1,0.1,1.6-0.2c0.5-0.1,0.9,0.1,1.4,0.2C66.4,63.2,65.4,63.4,64.4,63.1z"/>
	<path class="st63" d="M24.4,67.9c-0.3,0-0.6,0-0.8-0.1c-0.5-0.3-0.9-0.6-0.3-1.2c0.4-0.4,0.8-0.8,1.2-1.3c0.1,0.2,0.2,0.5,0,0.6
		c-0.8,0.6-0.6,1.2,0.1,1.7C24.5,67.7,24.4,67.8,24.4,67.9z"/>
	<path class="st55" d="M122.3,66.4c0.7,0.3,1-0.5,1.6-0.4c0.6,0.7-0.2,0.9-0.6,1.1c-0.9,0.5-1.7,1.5-3,1.1c0.2-0.8,0.8-1,1.4-1.3
		C121.9,66.8,122.2,66.8,122.3,66.4z"/>
	<path class="st33" d="M19.3,66.8c-0.2,0.2-0.3,0.5-0.5,0.7c-0.2-0.2-0.3-0.5-0.1-0.8C18.9,66.6,19.1,66.6,19.3,66.8z"/>
	<path class="st64" d="M88.3,58.8c3.1,0,6.3,0,9.4,0c0.5,0.1,1,0.1,0.7,0.9c0,0.1-0.1,0.2-0.1,0.3c-0.2,0.5,0,1.4-1.1,1.1
		c-0.1,0,0-0.1-0.1,0c-1.5,0.8-1.5,0.6-2.9,0.9c-1.6,0.4-3.1,0.1-4.7,0.3c-0.2,0-0.3,0-0.5,0c-0.8-0.3-1.7,0.4-2.4-0.4
		c-0.1-0.2,0-0.5,0-0.7c0.2-1.1,0.1-1.3-1-0.9c-0.6,0.2-0.8-0.4-1.3-0.3c-0.3,0-0.7-0.1-1-0.2c-0.4,0-0.7,0.3-1.1,0
		c-0.1,0-0.2-0.1-0.2-0.2c-0.3-0.2-0.6-0.2-0.9,0c-0.2,0.2-0.4,0.4-0.7,0.6c-0.1,0.1-0.2,0.1-0.3,0.1c-0.5,0-0.9,0.1-1.4-0.1
		c-0.2-0.1-0.4-0.3-0.5-0.6c-0.1-0.3-0.2-0.5,0.1-0.7C81.7,58.7,85,58.7,88.3,58.8z"/>
	<path class="st65" d="M48.3,58.6c3.7-0.1,7.4-0.1,11.1,0c0.1,0.4-0.3,0.5-0.6,0.7c-0.3,0.1-0.5,0.1-0.8,0.1c-0.5,0.1-1.1-0.5-1.6,0
		c-0.2,0.2-0.2,0.4-0.2,0.7c0,0.2,0,0.4,0,0.6c0.1,0.6,0.5,0.6,0.9,0.5c0.4,0,0.8-0.2,0.7-0.7c-0.1-0.2-0.1-0.4,0-0.6
		c0.1-0.1,0.1-0.2,0.2-0.2c0.2-0.1,0.4-0.2,0.7-0.1c0.4,0.1,0.6,0.5,0.6,0.8c0,0.5,0.2,1,0.4,1.4c0,0.1-0.1,0.2-0.2,0.3
		c-1.4,0.1-2.8,0.2-4.2,0.1c-1.3-0.7-2.7-0.1-4.1-0.4c-0.2,0-0.4,0-0.6-0.1c-0.5-0.3-0.9-0.6-1.6-0.3c-0.6,0.2-0.9-0.4-1.2-1
		c-0.2-0.5,0-0.9,0.5-1.1c0.7-0.2-0.2-0.2,0-0.3C48.2,59,48.1,58.8,48.3,58.6z"/>
	<path class="st66" d="M98.1,59.8c0.4-0.6-0.2-0.6-0.5-0.9c3,0,6-0.1,9,0c1,0,2-0.2,2.9-0.4c0,0.2,1-0.3,0.2,0.4
		c-0.3,0.3,0,0.6,0.1,0.6c0.3,0,0.5,0.2,0.7,0.4c0.3,1,0.4,2,0.9,2.9c0.3,1-0.7,0.8-1.1,1.2c0,0-0.3-0.2-0.4-0.3
		c-0.2-0.5,0.2-0.6,0.6-0.7c0,0,0.1-0.1,0-0.2c0-0.1-0.1-0.1-0.2-0.1c-1,0-2-0.1-3-0.1c-0.3-0.1-0.4-0.3-0.3-0.6
		c0.5-0.8-0.1-1.1-0.7-1.3c-0.2,0-0.4,0-0.6,0.2c-0.6,0.7-1.3,0.8-1.9,0.1c-0.5-0.5-0.6,0-0.8,0.2c-0.6,0.3-0.7-0.4-1.1-0.5
		c-0.3-0.2-0.7-0.3-1-0.6c-0.8-0.1-1.6,0-2.4,0C98.6,60,98.3,60,98.1,59.8z"/>
	<path class="st67" d="M48.3,58.6c0.1,0.6,0.8,0.6,1,1.2c-0.4,0.1-0.7-0.5-1.1,0c-0.2,0.3,0,0.4,0,0.7c0.1,0.5,0.5,0.9,0.8,0.7
		c0.9-0.7,1.5,0.5,1.8,0.3c0.9-0.4,1.6,0.3,2.4,0.2c0.6-0.1,0.3-0.4,0.4-0.6c0.4,0.3,0.9,0.5,1.3,0.8c-0.1,0.2-0.3,0.3-0.6,0.3
		c-3.1-0.1-6.3,0.2-9.4,0c-0.2-0.1-0.3-0.2-0.4-0.4c0-0.9-0.7-1.2-1.3-1.6c-0.3-0.3-0.7,0-1-0.1c-0.4-0.3-0.8-0.4-1.2-0.3
		c-0.3,0-0.6,0.3-1,0.3c-0.3-0.1-0.6-0.3-0.9-0.3c-0.1,0-0.3-0.1-0.4-0.2c-0.2-0.3-0.6-0.3-0.8-0.5c-0.1-0.2,0.1-0.3,0.3-0.5
		C41.6,58.6,45,58.6,48.3,58.6z"/>
	<path class="st68" d="M88.3,58.8c-2.9,0-5.7,0-8.6,0c-0.4,0-0.9-0.1-1.3,0.2c-0.3,0.3-0.6,0.3-1,0.3c-0.3,0.1-0.6,0.2-0.9,0.2
		c-0.2,0-0.5,0-0.7-0.1c-1.5-0.4-3-0.3-4.5-0.2c-0.3,0.1-0.5,0.2-0.7,0.3c-0.3,0.2-0.7,0.2-1.1,0.2c-0.2,0-0.4-0.2-0.6,0
		c-0.3,0.7,0.1,1.4-0.2,2c-0.2,0.1-0.4,0.2-0.6,0.1c-0.5-0.5-1.4,0.1-1.8-0.8c0.1-0.6,0.7-1.3-0.3-1.7c-0.7,0.3-1.3,0.7-2,0.1
		c-0.1,0-0.2,0.1-0.3,0.2c-0.1,0.4,0.1,1.2-0.4,1.3c-0.6,0.1-0.7-0.7-0.9-1.1c-0.2-0.4-0.6-0.9,0.1-1.2c6.6,0,13.2,0,19.9,0
		C84.3,58.7,86.3,58.6,88.3,58.8z"/>
	<path class="st69" d="M44.7,61.5c0,0.1,0,0.3,0,0.4c-0.3,0.4-0.8,0.4-1.2,0.4c-1.6,0-3.2,0-4.8,0c-0.9,0-1.8,0-2.7,0
		c-0.4,0-0.8,0-1.1-0.4c-0.1-1.1,0.2-2.2-0.2-3.3c1,0,1.9,0,2.9,0c0.3,0.5,0.1,0.7-0.4,0.8c-1.1,0.1-0.2,0.8-0.3,1.1
		c0,0.1,0,0.1,0.1,0.2c0,0,0,0,0.1-0.1c0.1-0.4,0.2-0.8,0.6-1.1c0.3-0.1,0.7-0.1,1,0c0.2,0.3,0,0.5-0.2,0.8
		c-0.1,0.2-0.3,0.3-0.3,0.5c0.4,0.4,0.8,0,1.3,0c0.2,0,0.4,0.1,0.6,0.2c0.2,0.1,0.4,0,0.6,0c0.1,0,0.2,0,0.3,0
		c0.4,0.1,0.7,0.1,1.1,0c0.2-0.1,0.4-0.1,0.6-0.1c0.2,0,0.3,0,0.5,0C43.8,61.2,44.3,61.1,44.7,61.5z"/>
	<path class="st70" d="M62.5,58.7c-0.3,0.9,0.6,1.4,0.7,2.3c0.3-0.7,0-1.2,0.4-1.7c0.6,0.6,0.3,1.3,0.3,2c0,0.1-0.1,0.2-0.2,0.3
		c-0.5,0.2-0.9,0-1.2-0.4c-0.3-0.3-0.6-0.6-0.9-0.7c-0.2-0.2-0.1-0.7-0.6-0.4c-0.2,0-0.3,0-0.4-0.1c-0.6-0.2-0.6,0.2-0.6,0.6
		c0,0.2-0.1,0.6-0.4,0.5c-0.3,0-0.3-0.4-0.3-0.6c0.2-0.6-0.4-0.9-0.5-1.3c0.2-0.2,0.5-0.3,0.7-0.5C60.4,58.7,61.4,58.7,62.5,58.7z"
		/>
	<path class="st71" d="M37.1,59.1c0.4,0.1,0.6-0.1,0.5-0.5c0.2,0,0.4,0,0.7,0c-0.1,0.2-0.1,0.3-0.2,0.5c0.1,0.3,0,0.4-0.2,0.6
		c-0.4,0.3-0.4,0.9-0.5,1.3C36.7,60.9,36.6,59.9,37.1,59.1z"/>
	<path class="st72" d="M35,61.9c1.3,0,2.5,0,3.8,0.1c0.2,0.2,0.1,0.4,0,0.5c-1,0.5-2.1,0.1-3.1,0.3c-0.7,0-1.5-0.2-2.2-0.1
		c-0.1,0-0.2-0.1-0.3-0.2c-0.1-0.1-0.1-0.2-0.2-0.4C33.5,62.1,34.3,62,35,61.9z"/>
	<path class="st73" d="M38.8,62.4c0-0.1,0-0.3,0-0.4c2,0,4,0,6-0.1c3.4,0,6.8,0,10.2,0c1.5,0,3.1,0,4.6,0c0.2-0.1,0.3-0.3,0.6-0.3
		c2.3-0.1,4.7,0,7,0c0.3,0,0.6,0,0.9,0.2c1.6-0.1,3.1-0.3,4.7-0.2c4.5,0.3,9,0.2,13.4,0.3c1.1,0,2.1,0.3,3.2,0.1c0.1,0,0.2,0,0.4,0
		c1.9,0.2,3.9,0.1,5.8,0c2.7-0.2,5.5-0.2,8.2-0.1c0.3,0.1,0.5,0.3,0.5,0.6c-0.4,0-0.7,0-1.1,0.1c-0.8,0.4-1.6,0.2-2.4,0.2
		c-1.4,0-2.9,0.2-4.3-0.2c-3.1,0-6.1,0-9.2-0.1c-2.6-0.1-5.3-0.1-7.9-0.1c-0.5,0-1,0.1-1.4,0.1c-0.4-0.2-0.8-0.1-1.2-0.1
		c-5.5,0-11,0-16.5,0c-0.4,0-0.8,0.1-1.2-0.1c-0.3,0-0.6,0-0.9,0c-1.4,0.1-2.8,0.1-4.2,0c-0.8-0.1-1.5-0.1-2.2,0.2
		c-0.9,0.2-1.8-0.1-2.8,0c-2,0-4,0.1-6-0.1c-0.9,0.1-1.7,0.1-2.6,0.3C39.8,62.9,39.2,62.9,38.8,62.4z"/>
	<path class="st62" d="M58.9,62.4c5.9,0,11.8,0,17.7,0c0.4,0,0.8-0.1,1.2,0.2c-6,0-12.1,0-18.1,0C59.4,62.6,59.1,62.6,58.9,62.4z"/>
	<path class="st74" d="M96.3,62.7c2.2,0,4.4,0,6.6,0c0.1,0.1,0.1,0.3,0.2,0.4c-2.4,0-4.9,0-7.3,0c-0.1,0-0.3,0-0.4,0
		C95.8,62.9,96,62.8,96.3,62.7z"/>
	<path class="st62" d="M48.9,62.4c0.9-0.2,1.8,0.1,2.7,0.2c0,0.1,0,0.1,0,0.2c-1.2,0-2.3,0-3.5,0C48.2,62.2,48.7,62.7,48.9,62.4z"/>
	<path class="st62" d="M53.8,62.4c1.4,0,2.8,0,4.2,0C56.6,62.7,55.2,62.7,53.8,62.4z"/>
	<path class="st60" d="M38.8,62.4c1.3,0.4,2.7-0.2,4,0.1c0.1,0,0.1,0.1,0.1,0.1c0,0,0,0-0.1,0c-1.2,0.5-2.6,0.2-3.8,0.6
		c-1.3,0.1-2.6-0.4-3.8,0.4c-0.5,0.3-0.9-0.1-1-0.7c0,0,0-0.1,0.1-0.1c0.4-0.4,0.9-0.1,1.3-0.3C36.5,62.4,37.6,62.4,38.8,62.4z"/>
	<path class="st60" d="M33.1,62.6c0,0,0.1,0,0.1,0c0.3,0,0.8-0.3,1,0.3c0,0,0,0,0,0c-0.2,0.4-0.7,0.5-0.5,1.1
		c0.1,0.3-0.3,0.8-0.7,0.6c-0.5-0.2-0.2-0.6,0-0.8C33.3,63.4,32.7,62.9,33.1,62.6z"/>
	<path class="st75" d="M104.1,62.6c-0.1-0.1-0.1-0.3-0.2-0.4c0-0.1,0.1-0.1,0.1-0.2c1.1-0.2,2.3-0.4,3.4,0.1c1.1,0,2.2,0.1,3.2,0.3
		c-0.6,0.4-1.3,0.1-1.9,0.2C107.2,62.6,105.6,62.6,104.1,62.6z"/>
	<path class="st76" d="M42.8,62.6c0-0.1,0-0.1,0-0.2c2.1,0,4.1,0,6.2,0c-0.3,0.1-0.6,0.2-0.8,0.4c-0.6,0-1.2,0-1.8,0.1
		C45.1,62.7,43.9,63.1,42.8,62.6z"/>
	<path class="st77" d="M89.3,62c-1.1,0.4-2.2,0.2-3.3,0.2c-6,0-12-0.1-18-0.2c0,0-0.1-0.1-0.1-0.1c0,0,0.1-0.1,0.1-0.1
		c0.2,0,0.4,0,0.6,0c0.2-0.4,0.8-0.1,1-0.5c-0.3-0.1,0.1-0.4-0.3-0.5c-0.9-0.4-0.8-0.6,0-1.2c0.4-0.1,0.8,0.1,1.1-0.2
		c1.2,0,1.3,1.1,1.8,1.8c0.2-0.2,0.1-0.4,0.2-0.6c0.1-0.4,0.3-0.8,0.8-0.9c0.1,0,0.1,0,0.2,0c0-0.2-0.1-0.1-0.2-0.2
		c-0.1,0-0.2,0-0.3,0c-0.6,0.2-1.2,0.5-1.8-0.2c0,0,0-0.1-0.1-0.1c1.6-0.5,3.2-0.2,4.7-0.1c0.1,0,0.1,0.2,0.2,0.3
		c-0.1,0.2-0.2,0.5-0.1,0.7c0.3,0.1-0.4,1.3,0.6,0.5c0.3-0.2,0.6-0.1,0.7,0.1c0.3,0.8,1,0.7,1.6,0.8c1.1,0.3,2.2,0.3,3.2,0.1
		c0.2-0.1,0.4-0.1,0.7-0.1c1.1,0.4,2.2,0.3,3.3,0c0.3-0.1,0.6-0.2,0.8,0c0.2,0.7,0.8,0.4,1.2,0.4C88.4,62,88.9,62,89.3,62z"/>
	<path class="st78" d="M103.9,62.2c-4.2,0-8.5,0-12.7,0c-0.5,0-1,0.1-1.5-0.2c1.1,0,2.3,0,3.4-0.1c0.3,0,0.9,0.4,0.8-0.4
		c0,0,0.2-0.1,0.2-0.1c0.7,1,1.8-0.4,2.6,0.5c-0.1-0.6,0.4-1,0.2-1.5c0.3,0,0.4,0.2,0.5,0.3c0.1,0.3,0.3,0.3,0.5,0.2
		c0.2-0.1,0.3-0.3,0-0.5C97.4,60,97.9,60,98.1,60c0.8-0.2,0.9,0.3,0.8,0.9c0,0.5,0.3,0.5,0.6,0.4c0.1,0,0.2,0,0.3,0
		c0.5,0.2,1,0.1,1.5,0.1c0.2,0,0.3,0,0.5,0c0.3,0,0.6-0.1,0.9-0.1c0.4,0.1,0.9-0.1,1.3,0.4C104,61.9,104,62,103.9,62.2L103.9,62.2z"
		/>
	<path class="st79" d="M82.6,61.5c-0.2,0.1-0.3,0.2-0.5,0.3c-0.6,0.2-1.1,0.2-1.4-0.5c0-0.2,0.1-0.5,0.4-0.4
		c0.9,0.3,1.1-0.1,1.1-0.9c0-0.1,0.1-0.3,0.2-0.4c0.4,0.3,0.6-0.1,0.8-0.2c0.3,0.2,0.3,0.5,0.4,0.7c0.1,0.3,0.1,0.7,0.5,0.6
		c0.4-0.1,0.2-0.5,0.2-0.7c0-0.1,0-0.3,0.1-0.4c0.7,0,1.3,0.4,2-0.1c0.3-0.2,0.5,0.3,0.6,0.5c0.3,0.6,0,1.1-0.2,1.5
		c-0.2,0.1-0.4,0.2-0.7,0.3C85,61.6,83.8,62.1,82.6,61.5z"/>
	<path class="st80" d="M77.3,59.1c0.4,0,0.7,0,1.1,0c0.1,0.1,0.2,0.3,0.2,0.4c0.1,0.3,0.3,0.7,0.3,1.1c0,0.5-0.4,0.7-0.8,0.8
		c-0.4,0.1-0.7-0.1-0.9-0.5C77,60.3,76.8,59.7,77.3,59.1z"/>
	<path class="st81" d="M84.4,59.5c0.1,0.2,0.1,0.3,0.2,0.5c0.2,0.4,0.2,0.7-0.1,1c-0.2,0.2-0.5,0.2-0.7,0.1
		c-0.4-0.2-0.5-0.5-0.6-0.9c0-0.3,0-0.7,0-1C83.6,59.4,84,59.5,84.4,59.5z"/>
	<path class="st82" d="M77.3,59.1c0,0.5-0.1,0.9,0,1.4c0,0.4,0.1,0.8,0.6,0.8c0.4,0,0.7-0.3,0.8-0.8c0-0.3,0-0.7,0-1
		c0.1,0.1,0.2,0.3,0.3,0.4c0.3,0.3,0.3,0.7,0.2,1c-0.1,0.3-0.2,0.4-0.5,0.5c-1,0.4-1.5,0.1-1.7-0.9c0,0-0.1-0.1-0.2-0.1
		c-0.1,0-0.1,0.1-0.1,0.1c-0.6-0.1-0.3-0.6-0.3-0.9c0.1-0.2,0.2-0.3,0.3-0.4C76.9,59.3,77.1,59.2,77.3,59.1z"/>
	<path class="st83" d="M82.4,59.6c0,0.2,0,0.4,0,0.6c0.1,1-0.2,1.3-1.1,0.9c-0.2-0.1-0.3-0.3-0.5,0c-0.2,0.1-0.4,0.1-0.5-0.2
		c0-0.3,0.2-0.6,0.5-0.8c0.5-0.1,0.9-0.2,1.2-0.7c0.1-0.1,0.2-0.2,0.4-0.1C82.4,59.4,82.4,59.5,82.4,59.6z"/>
	<path class="st84" d="M82.2,59.6c-0.2,0.8-0.6,1-1.3,0.6c-0.2,0-0.3,0-0.2-0.2c0-0.3,0.2-0.5,0.4-0.7
		C81.5,59.3,81.8,59.2,82.2,59.6z"/>
	<path class="st85" d="M80.6,60c0.1,0.1,0.1,0.1,0.2,0.2c0,0.3-0.2,0.5-0.4,0.7c-0.3,0.3-0.7,0.3-1,0.2c-0.3-0.2-0.4-0.4-0.4-0.7
		c0.1-0.3,0.4-0.1,0.6-0.2c0.3,0,0.6,0,0.8-0.2C80.5,60,80.6,60,80.6,60z"/>
	<path class="st83" d="M80.5,60c-0.2,0.7-0.6,0.4-1.1,0.4c-0.3,0-0.3,0-0.1,0.5c-0.1,0.2-0.2,0.3-0.4,0.3c0-0.4,0-0.7,0-1.1
		C79.4,60,79.9,60,80.5,60z"/>
	<path class="st86" d="M98.6,61.1c0-0.4,0.4-1.1-0.5-1.2c0-0.1,0-0.1,0-0.2c0.3,0,0.5,0,0.8,0c0.4,0.2,0.6,0.7,0.5,1.1
		C99.4,61.4,99.1,61.6,98.6,61.1z"/>
	<path class="st87" d="M82.2,59.6c-0.4-0.1-0.8,0-1.1-0.2c0.4-0.3,0.9-0.4,1.3,0C82.3,59.4,82.2,59.5,82.2,59.6z"/>
	<path class="st81" d="M55.8,60.6c0.1-0.1,0.1-0.2,0.2-0.3c0.3-0.3,0.4,0.1,0.7,0.1c-0.6-0.1-0.7-0.5-0.7-1c0.6-0.8,1.3-0.2,2,0
		c0.4-0.1,0.5,0.1,0.5,0.4c-0.2,0.1-0.3,0.2-0.5,0.3c-0.1-0.1,0,0-0.1-0.1c-0.2-0.1-0.3-0.1-0.5-0.2c0.1,0.1,0.3,0.1,0.4,0.4
		c0.1,0.1,0.1,0.3,0.2,0.4c0.2,0.8-0.4,0.8-0.9,0.9C56.4,61.6,56.1,61.2,55.8,60.6z"/>
	<path class="st88" d="M58.5,59.7c-0.2-0.1-0.3-0.3-0.5-0.4c0.2-0.3,0.4-0.3,0.6-0.2c1.1,0.2,0.6,1.1,0.8,1.8c0.3-0.5,0-1,0.2-1.4
		c0.3,0.1,0.7,0,1,0.2c-0.1,0.2-0.2,0.3-0.3,0.5c-0.4,0.4,0.1,1.3-0.7,1.5c-0.7,0-0.6-0.5-0.6-1C58.9,60.3,59.2,59.8,58.5,59.7z"/>
	<path class="st89" d="M55.8,60.6c1,0.9,1.7,0.9,2.2-0.1c0.2,0.8,0.1,1-0.7,1.1C56.5,61.7,55.8,61.7,55.8,60.6z"/>
	<path class="st90" d="M56,59.3c0.2,0.7,0.9,0.9,1.5,1.2c-0.6,0.1-1.1-0.1-1.6-0.3C55.7,59.9,55.8,59.6,56,59.3z"/>
	<path class="st91" d="M57.8,60c-0.4-0.1-0.7-0.6-1.2-0.4c0.7-0.5,1.1-0.2,1.4,0.4C57.9,60,57.9,60,57.8,60z"/>
	<path class="st70" d="M59.6,61.7c0.6-0.5-0.1-1.4,0.5-1.9c0.5,0.7,0.5,1.4,0,2.1c-0.2,0-0.3,0-0.5,0C59.6,61.9,59.6,61.8,59.6,61.7
		z"/>
	<path class="st92" d="M103.9,61.8c-0.3-0.3-0.8,0.2-1.1-0.3c-0.1-0.4,0.3-0.3,0.4-0.5c-0.1-0.5,0-0.9,0.5-1
		c0.7-0.1,0.8,0.5,0.8,1.1c0.4-0.3,0.2-0.9,0.7-0.8c0.4,0,0.1,0.5,0.3,0.7c0.3-0.5,0.2-1.6,1.3-0.8c0.4,0.4,0.5,0.8,0.3,1.3
		c-0.2,0.5-0.7,0.5-1.2,0.5C105.2,61.9,104.5,62.1,103.9,61.8z"/>
	<path class="st93" d="M101.9,61.7c-0.2,0-0.3,0-0.5,0c-0.5-0.4-1.2-0.2-1.8-0.2c-0.1,0-0.2,0-0.2,0c-0.2-0.2-0.1-0.6-0.1-0.8
		c-0.1-0.5,0-0.8,0.7-0.8c0.4,0,0.7-0.2,1-0.3c0.5,0.1,0.2,0.4,0.2,0.7c0.1-0.1,0.1-0.3,0.1-0.5c0,0,0.1-0.1,0.1-0.1
		c0.3,0.2,0.5,0.4,0.8,0.6C102.8,61,102.3,61.3,101.9,61.7z"/>
	<path class="st94" d="M103.9,61.8c0.6,0,1.2-0.1,1.7,0c1.4,0,1.5-0.1,1.2-1.6c0.3,0.4,1,0,1.2,0.7c0.1,0.6-0.3,0.9-0.5,1.3
		c-1.2,0-2.4,0-3.6,0C103.9,62,103.9,61.9,103.9,61.8z"/>
	<path class="st95" d="M101.2,59.7c-0.2,0.1-0.5,0.3-0.7,0.3c-1.1,0-1.1,0.7-1,1.5c-0.5,0.4-0.8,0.3-0.9-0.4
		c0.3,0.1,0.7,0.2,0.6-0.4c-0.1-0.3-0.2-0.7-0.3-1c0-0.1,0-0.3,0-0.4c0.7,0.6,1.4,0.2,2.2,0.1c0.1,0,0.3,0.2,0.4,0.3
		c0,0-0.1,0-0.1,0C101.3,59.9,101.3,59.9,101.2,59.7z"/>
	<path class="st96" d="M101.9,61.7c-0.4-0.6,0.7-0.8,0.3-1.3c0.8-0.5,0.4,0.7,0.9,0.7c-0.1,0.2-0.3,0.3-0.4,0.5
		C102.5,61.6,102.2,61.8,101.9,61.7z"/>
	<path class="st97" d="M40.1,61.5c-0.1-0.1-0.3-0.3-0.4-0.4c-0.6,0.1-1.3,0.7-1.8-0.2c0.2-0.2,0.3-0.3,0.5-0.5
		c0.1-0.3,0.9,0.6,0.6-0.4c0-0.1,0.2-0.2,0.3-0.3c0.5-0.6,0.6,0,0.9,0.2c0.1,0.1,0.2,0.2,0.2,0.3C40.4,60.7,40.4,61.1,40.1,61.5z"/>
	<path class="st98" d="M44.7,61.5c-0.5-0.1-1.1,0.2-1.5-0.2c-0.2-0.3-0.2-0.6-0.1-0.9c0-0.2,0.1-0.3,0.3-0.4c0.3,0,0.4,0.8,0.8,0.1
		C44.5,60.5,44.7,61,44.7,61.5z"/>
	<path class="st99" d="M40.9,59.6c0.5,0,1.2-0.6,1.4,0.5c0.3,0.4,0.3,0.7,0,1.1c-0.1,0-0.2-0.1-0.3,0c-0.9,0.3-1.1-0.3-1.3-1
		C40.6,59.8,40.7,59.7,40.9,59.6z"/>
	<path class="st100" d="M42.1,61c0.3-0.3,0.2-0.7,0.2-1c0.4,0.1,0.7-0.8,1.1-0.1c0,0.2,0,0.3,0,0.5c-0.4,0.1-0.3,0.7-0.7,0.8
		c-0.1,0.1-0.3,0.2-0.4,0.2C42.1,61.4,41.9,61.3,42.1,61z"/>
	<path class="st101" d="M40.9,59.6c-0.1,0.2-0.1,0.3-0.2,0.5c0.3,0.4,0.5,0.8,0.2,1.3c-0.1,0-0.1,0-0.2,0c-0.8,0-0.4-0.8-0.7-1.1
		c0-0.1,0-0.2,0-0.2C40.3,59.8,40.6,59.5,40.9,59.6z"/>
	<path class="st102" d="M37.9,59.7c-0.1-0.2,0.1-0.4,0.2-0.6c0.3,0,0.8-0.2,0.9,0.4c0.1,0.2,0,0.3-0.3,0.2
		C38.4,59.8,38.2,59.9,37.9,59.7z"/>
	<path class="st103" d="M38.7,59.8c0.1-0.1,0.2-0.2,0.3-0.2c0.1,0.1,0.2,0.1,0.2,0.2c-0.4,0.3,0,0.6-0.1,1c-0.3,0-0.6-0.1-0.8-0.3
		C38.5,60.2,38.6,60,38.7,59.8z"/>
	<path class="st104" d="M66,59.1c0.3,0,0.9-0.1,0.8,0.4c0,0.5,0.4,1.3-0.4,1.6c-0.1,0.2,0,0.4-0.3,0.5c-0.2,0.1-0.3,0-0.5-0.1
		c-0.2-0.2-0.3-0.4-0.4-0.6C65.3,60.3,65.3,59.6,66,59.1z"/>
	<path class="st105" d="M66,59.1c-0.3,0.6-0.4,1.3-0.5,2c-0.4,0.3-0.4,0.3-0.9-0.2c-0.2-0.3-0.3-0.1-0.5,0.1
		c-0.2,0.2-0.4,0.4-0.5-0.1c0-0.6-0.1-1.2,0.1-1.7c0.2,0,0.4,0,0.5,0.1c0.5,0.5,0.8,0.7,1.2-0.1C65.6,59.1,65.9,59.1,66,59.1z"/>
	<path class="st106" d="M69.4,59.5c-0.2,0.5-0.7,1,0.4,1c0.9,0-0.7,0.7,0.2,0.7c-1.1,0.5-1.4,0.3-1.5-0.8c0-0.4-0.1-0.9,0.1-1.3
		C68.9,59.2,69.2,59.3,69.4,59.5z"/>
	<path class="st107" d="M68.6,59.1c0,0.3,0.1,0.7,0.1,1c-0.2,1.2,0.3,1.4,1.3,1.2c0.2,0.1,0.5,0,0.5,0.2c0,0.3-0.3,0.3-0.5,0.3
		c-0.5,0-0.9,0-1.4,0C68.2,60.9,68.3,60,68.6,59.1z"/>
	<path class="st108" d="M72.5,61.5c-0.4,0.4-0.7,0.2-0.7-0.3c0-1-0.7-1.4-1.3-2c0.1-0.3,0.4-0.2,0.6-0.2c0,0,0,0,0,0
		C72,59.7,72.4,60.5,72.5,61.5z"/>
	<path class="st109" d="M66.2,61.5c0-0.2,0.1-0.4,0.2-0.5c0.5,0.3,1,0.1,1.5,0.1c0.6,0,0.2,0.3,0.1,0.5c0,0,0,0,0,0
		C67.4,61.8,66.7,62.1,66.2,61.5z"/>
	<path class="st110" d="M76.6,59.4c0,0.1,0,0.3,0,0.4c-0.3,0.2-0.5,0.5-0.9,0.3c-0.2-0.1-0.6-0.2-0.6-0.4c0.1-0.4,0.5-0.2,0.8-0.3
		C76.2,59.3,76.4,59.3,76.6,59.4z"/>
	<path class="st111" d="M63.8,59.1c0,0.6,0,1.3,0,1.9c0.2,0.1,0.3,0.3,0.2,0.5c-0.2,0.2-0.4,0.4-0.6,0c0-0.7,0-1.5,0-2.2
		C63.6,59.2,63.7,59.2,63.8,59.1z"/>
	<path class="st112" d="M40.9,61.3c0.2-0.5-0.1-0.9-0.2-1.3c0.9-0.1,0.2,0.8,0.6,1c0.6-0.1-0.1-0.7,0.4-0.9c0.5,0.2,0.2,0.7,0.3,1
		c0.1,0.2,0.1,0.3,0.2,0.5C41.8,61.5,41.3,61.7,40.9,61.3z"/>
	<path class="st113" d="M37.1,59.1c-0.1,0.7-0.6,1.4,0.3,2c0,0.4-0.3,0.6-0.6,0.4c-0.5-0.5-0.1-1.3-0.6-1.9
		C36.2,59.5,36.8,59.1,37.1,59.1z"/>
	<path class="st114" d="M37.9,60.8c0.5,0.6,1.2,0.1,1.8,0.2C38.6,61.8,38,61.8,37.9,60.8z"/>
	<path class="st115" d="M42.7,61.3c0.1-0.3,0.1-0.6,0.2-0.9c0.2-0.5,0.3,0.1,0.5,0.1c0.1,0.3,0,0.6-0.2,0.8
		C43.1,61.3,42.9,61.3,42.7,61.3z"/>
	<path class="st114" d="M40.1,60.2c0.3,0.3,0.2,0.9,0.7,1.1c-0.2,0.2-0.4,0.2-0.6,0.2C40.1,61.1,40.1,60.6,40.1,60.2z"/>
	<path class="st65" d="M63.5,61.5c0.2,0.4,0.3,0,0.5,0c0.3-0.2-0.2-1.1,0.7-0.8c0.3,0.4,0.6,0.7,1.1,0.8c0.1,0,0.3,0,0.4,0
		c0.6,0.4,1.2,0.1,1.8,0.2c0,0.1,0,0.1,0,0.2c-2.7,0-5.3,0-8,0c0-0.7,0-1.4,0-2.1c0.2,0,0.4,0,0.6-0.1c0.1,0.1,0.2,0.2,0.3,0.3
		c-0.1,1.1,0.8,0.7,1.3,0.9c0.3,0.2,0.6,0.7,1.1,0.6C63.4,61.5,63.4,61.5,63.5,61.5z"/>
	<path class="st116" d="M62.3,61c-0.1,0-0.3,0-0.4,0c-0.4,0-0.9,0.5-1.2,0.1c-0.3-0.4,0.3-0.8,0.3-1.2c0.2-0.2,0.3-0.4,0.5-0.6
		c0.2,0.3,0.1,0.6,0.1,1C61.7,60.7,62.3,60.5,62.3,61z"/>
	<path class="st117" d="M62.3,61c0-0.4-1.1,0.2-0.7-0.7c0.9-0.1,1,0.9,1.7,1.2C62.8,61.8,62.5,61.5,62.3,61z"/>
	<path class="st57" d="M34.1,62.8c-0.3-0.3-0.6-0.2-1-0.3c0.7-0.3,1.5-0.1,2.3-0.1C35,62.6,34.6,62.7,34.1,62.8z"/>
	<path class="st118" d="M78.9,61.1c0.1-0.1,0.3-0.2,0.4-0.3c0.4,0,0.7,0,1.1,0c0.1,0.1,0.3,0.1,0.4,0.2c0.3,0.6,0.8,0.6,1.4,0.7
		c-1.1,0.4-2.1,0.1-3.2,0.2c-0.2,0-0.3-0.2-0.3-0.4C78.7,61.4,78.8,61.2,78.9,61.1z"/>
	<path class="st119" d="M72.5,61.5c-0.5-0.8-0.9-1.6-1.4-2.4c0.7,0.5,1.4,0,2.1,0c0.1,0.6-0.6,0.9-0.5,1.5
		C72.6,60.9,72.7,61.2,72.5,61.5z"/>
	<path class="st64" d="M82.6,61.5c0.1-0.1,0.1-0.2,0.2-0.2c1,0.9,2.3-0.1,3.3,0.5c-1.1,0.4-2.2,0.1-3.2,0.1
		C82.7,61.9,82.6,61.7,82.6,61.5z"/>
	<path class="st120" d="M75.7,60c0.3-0.1,0.6-0.2,0.9-0.3c0.1,0.3-0.4,0.6,0,0.9c0,0.3-0.2,0.4-0.4,0.6c-0.2,0.1-0.3,0.4-0.6,0.2
		c-0.2-0.1-0.2-0.4-0.1-0.6C75.6,60.6,75.7,60.3,75.7,60z"/>
	<path class="st121" d="M72.6,60.6c-0.5-0.1-0.2-0.3-0.1-0.5c0.2-0.3,0.4-0.6,0.6-1c0,0,0.1,0,0.1,0c0.3,0.2,0.2,0.4,0.1,0.7
		C73.1,60,72.8,60.3,72.6,60.6z"/>
	<path class="st87" d="M73.3,59.8c0-0.2,0-0.4-0.1-0.7c0.1,0.1,0.3,0.2,0.4,0.3c0.2,0.2,0.6,0.2,0.3,0.5
		C73.7,60.4,73.5,59.8,73.3,59.8z"/>
	<path class="st122" d="M99.7,61.5c0.5-0.5,1.2-0.1,1.8-0.2c0.1,0,0.1,0.3,0,0.5C100.9,61.7,100.2,61.9,99.7,61.5z"/>
	<path class="st123" d="M101.2,59.7c0.1,0,0.1,0,0.2,0c0.3,0.8-0.2,1-0.9,1.3C100.6,60.5,101.3,60.3,101.2,59.7z"/>
	<path class="st108" d="M65.8,61.5c-0.7,0.3-0.8-0.3-1.1-0.7c-0.1-0.2,0-0.3,0.2-0.2c0.2,0.2,0.3,0.6,0.7,0.4
		C65.8,61.2,65.8,61.4,65.8,61.5z"/>
	<path class="st124" d="M64.9,60.7c-0.1,0.1-0.1,0.1-0.2,0.2c-0.7-0.3-0.2,0.7-0.7,0.6c-0.1-0.2-0.1-0.3-0.2-0.5
		c0.1-0.1,0.1-0.2,0.2-0.2c0.1-0.2-0.1-0.7,0.2-0.7C64.6,60,64.7,60.4,64.9,60.7z"/>
</g>
</svg>
